<?xml version="1.0" encoding="UTF-8" standalone="no"?>
<!-- Created with Inkscape (http://www.inkscape.org/) -->

<svg
   xmlns:dc="http://purl.org/dc/elements/1.1/"
   xmlns:cc="http://creativecommons.org/ns#"
   xmlns:rdf="http://www.w3.org/1999/02/22-rdf-syntax-ns#"
   xmlns:svg="http://www.w3.org/2000/svg"
   xmlns="http://www.w3.org/2000/svg"
   xmlns:sodipodi="http://sodipodi.sourceforge.net/DTD/sodipodi-0.dtd"
   xmlns:inkscape="http://www.inkscape.org/namespaces/inkscape"
   width="86.33989mm"
   height="80.339844mm"
   viewBox="0 0 305.92874 284.66874"
   id="svg8013"
   version="1.1"
   inkscape:version="0.91 r13725"
   sodipodi:docname="fig1.svg">
  <defs
     id="defs8015">
    <clipPath
       id="clipPath5943"
       clipPathUnits="userSpaceOnUse">
      <path
         inkscape:connector-curvature="0"
         id="path5945"
         d="m 35.887,300.699 244.743,0 0,-227.735 -244.743,0" />
    </clipPath>
  </defs>
  <sodipodi:namedview
     id="base"
     pagecolor="#ffffff"
     bordercolor="#666666"
     borderopacity="1.0"
     inkscape:pageopacity="0.0"
     inkscape:pageshadow="2"
     inkscape:zoom="0.35"
     inkscape:cx="-74.892768"
     inkscape:cy="-66.237076"
     inkscape:document-units="px"
     inkscape:current-layer="layer1"
     showgrid="false"
     fit-margin-top="0"
     fit-margin-left="0"
     fit-margin-right="0"
     fit-margin-bottom="0"
     inkscape:window-width="1366"
     inkscape:window-height="690"
     inkscape:window-x="0"
     inkscape:window-y="25"
     inkscape:window-maximized="1" />
  <metadata
     id="metadata8018">
    <rdf:RDF>
      <cc:Work
         rdf:about="">
        <dc:format>image/svg+xml</dc:format>
        <dc:type
           rdf:resource="http://purl.org/dc/dcmitype/StillImage" />
        <dc:title></dc:title>
      </cc:Work>
    </rdf:RDF>
  </metadata>
  <g
     inkscape:label="Layer 1"
     inkscape:groupmode="layer"
     id="layer1"
     transform="translate(35.821518,-752.88495)">
    <g
       id="g5939"
       transform="matrix(1.25,0,0,-1.25,-80.680268,1128.7587)">
      <g
         id="g5941"
         clip-path="url(#clipPath5943)">
        <path
           d="m 262.992,130.724 c 0,-19.566 -50.777,-35.434 -113.386,-35.434 -62.61,0 -113.385,15.868 -113.385,35.434"
           style="fill:none;stroke:#000000;stroke-width:0.49599999;stroke-linecap:butt;stroke-linejoin:miter;stroke-miterlimit:22.9260006;stroke-dasharray:none;stroke-opacity:1"
           id="path5947"
           inkscape:connector-curvature="0" />
        <path
           d="m 149.606,244.109 c 62.609,0 113.386,-15.867 113.386,-35.433 0,-19.565 -50.777,-35.433 -113.386,-35.433 -62.61,0 -113.385,15.868 -113.385,35.433 0,19.566 50.775,35.433 113.385,35.433 z"
           style="fill:none;stroke:#000000;stroke-width:0.49599999;stroke-linecap:butt;stroke-linejoin:miter;stroke-miterlimit:22.9260006;stroke-dasharray:4.9605, 2.4805;stroke-dashoffset:0;stroke-opacity:1"
           id="path5949"
           inkscape:connector-curvature="0" />
        <path
           d="m 120.84,165.007 99.632,-21.788"
           style="fill:none;stroke:#000000;stroke-width:0.49599999;stroke-linecap:butt;stroke-linejoin:miter;stroke-miterlimit:22.9260006;stroke-dasharray:none;stroke-opacity:1"
           id="path5951"
           inkscape:connector-curvature="0" />
        <path
           d="m 149.606,130.724 129.842,0 m -2.245,1.813 2.796,-1.813 -2.796,-1.815 m -56.731,14.31 -70.866,-12.495 -28.649,34.256"
           style="fill:none;stroke:#000000;stroke-width:0.708;stroke-linecap:butt;stroke-linejoin:miter;stroke-miterlimit:22.9260006;stroke-dasharray:none;stroke-opacity:1"
           id="path5953"
           inkscape:connector-curvature="0" />
        <path
           d="m 220.472,143.219 -99.515,99.749 28.649,-112.244 m -28.649,113.385 0,-79.129"
           style="fill:none;stroke:#000000;stroke-width:0.708;stroke-linecap:butt;stroke-linejoin:miter;stroke-miterlimit:22.9260006;stroke-dasharray:7.0865, 3.5435;stroke-dashoffset:0;stroke-opacity:1"
           id="path5955"
           inkscape:connector-curvature="0" />
        <path
           d="m 220.472,143.219 0,117.62 M 149.606,130.724 92.684,73.801"
           style="fill:none;stroke:#000000;stroke-width:0.708;stroke-linecap:butt;stroke-linejoin:miter;stroke-miterlimit:22.9260006;stroke-dasharray:none;stroke-opacity:1"
           id="path5957"
           inkscape:connector-curvature="0" />
        <path
           d="m 95.555,74.109 -3.26,-0.696 0.694,3.26"
           style="fill:none;stroke:#000000;stroke-width:0.70899999;stroke-linecap:butt;stroke-linejoin:miter;stroke-miterlimit:22.9260006;stroke-dasharray:none;stroke-opacity:1"
           id="path5959"
           inkscape:connector-curvature="0" />
        <path
           d="m 149.606,130.724 0.228,168.802"
           style="fill:none;stroke:#000000;stroke-width:0.708;stroke-linecap:butt;stroke-linejoin:miter;stroke-miterlimit:22.9260006;stroke-dasharray:none;stroke-opacity:1"
           id="path5961"
           inkscape:connector-curvature="0" />
        <path
           d="m 148.025,297.29 1.809,2.783 1.804,-2.788"
           style="fill:none;stroke:#000000;stroke-width:0.70599997;stroke-linecap:butt;stroke-linejoin:miter;stroke-miterlimit:22.9260006;stroke-dasharray:none;stroke-opacity:1"
           id="path5963"
           inkscape:connector-curvature="0" />
        <path
           d="m 149.606,166.157 c 62.609,0 113.386,-15.867 113.386,-35.433 0,-19.566 -50.777,-35.434 -113.386,-35.434 -62.61,0 -113.385,15.868 -113.385,35.434 0,19.566 50.775,35.433 113.385,35.433 z"
           style="fill:none;stroke:#000000;stroke-width:0.49599999;stroke-linecap:butt;stroke-linejoin:miter;stroke-miterlimit:22.9260006;stroke-dasharray:4.9605, 2.4805;stroke-dashoffset:0;stroke-opacity:1"
           id="path5965"
           inkscape:connector-curvature="0" />
        <path
           d="m 36.221,130.724 0,127.955 m 226.799,-127.955 0,127.955 M 145.134,136.262 c 1.674,0.14 3.403,0.212 5.137,0.212 10.956,0 19.842,-2.777 19.842,-6.201 0,-3.423 -8.886,-6.201 -19.842,-6.201 -2.606,0 -5.189,0.162 -7.596,0.473 m 35.27,11.152 c 2.785,-1.527 4.255,-3.258 4.255,-5.018 0,-5.601 -14.532,-10.143 -32.454,-10.143 -3.304,0 -6.597,0.158 -9.747,0.469 m 3.164,1.519 -2.962,-1.455 2.586,-1.939 m 3.715,6.832 -2.962,-1.454 2.585,-1.939 m 1.607,15.957 -2.439,-2.221 3.023,-1.144 m 33.198,-0.111 -3.243,0.609 0.908,-3.101 m 41.249,63.481 c -1.942,0.301 -3.921,0.453 -5.893,0.453 -12.617,0 -24.297,-6.174 -30.69,-16.219 m 0.039,3.228 -0.273,-3.289 2.991,1.224 m 30.299,13.357 2.925,1.528 -2.633,1.874"
           style="fill:none;stroke:#000000;stroke-width:0.708;stroke-linecap:butt;stroke-linejoin:miter;stroke-miterlimit:22.9260006;stroke-dasharray:none;stroke-opacity:1"
           id="path5967"
           inkscape:connector-curvature="0" />
      </g>
    </g>
    <path
       d="M 70.515972,825.04872 60.089727,780.36122"
       style="fill:none;stroke:#000000;stroke-width:0.88499999;stroke-linecap:butt;stroke-linejoin:miter;stroke-miterlimit:22.9260006;stroke-dasharray:8.858125, 4.429375;stroke-dashoffset:0;stroke-opacity:1"
       id="path5969"
       inkscape:connector-curvature="0" />
    <path
       d="m 70.513482,825.04872 19.975,25.22625"
       style="fill:none;stroke:#000000;stroke-width:2.12625003;stroke-linecap:butt;stroke-linejoin:miter;stroke-miterlimit:22.9260006;stroke-dasharray:none;stroke-opacity:1"
       id="path5971"
       inkscape:connector-curvature="0" />
    <path
       d="m 90.242232,849.96372 -0.30125,-5.4975 3.0375,3.8375 0.5525,5.805 -5.52751,-1.865 -3.03874,-3.83625 5.27749,1.55625"
       style="fill:#000000;fill-opacity:1;fill-rule:evenodd;stroke:none"
       id="path5973"
       inkscape:connector-curvature="0" />
    <path
       d="M 194.90973,949.73497 70.515982,825.04872 l 35.811248,140.305"
       style="fill:none;stroke:#000000;stroke-width:0.88499999;stroke-linecap:butt;stroke-linejoin:miter;stroke-miterlimit:22.9260006;stroke-dasharray:8.858125, 4.429375;stroke-dashoffset:0;stroke-opacity:1"
       id="path5975"
       inkscape:connector-curvature="0" />
    <path
       d="m 131.38223,885.84622 -18.1025,-17.9325"
       style="fill:none;stroke:#000000;stroke-width:2.65749979;stroke-linecap:butt;stroke-linejoin:miter;stroke-miterlimit:22.9260006;stroke-dasharray:none;stroke-opacity:1"
       id="path5977"
       inkscape:connector-curvature="0" />
    <path
       d="m 113.63472,868.26372 1.20126,6.785 -4.3525,-4.31125 -1.55875,-7.1325 7.14875,1.48875 4.35375,4.31125 -6.7925,-1.14125"
       style="fill:#000000;fill-opacity:1;fill-rule:evenodd;stroke:none"
       id="path5979"
       inkscape:connector-curvature="0" />
    <path
       d="m 106.14973,785.44247 c -0.205,0 -0.435,-0.006 -0.6475,-0.006 -15.089998,0 -29.461248,7.225 -39.418748,19.80875 m 1.04625,-4.3125 -0.79625,4.0475 3.88625,-1.105 m 32.364998,-16.215 3.27125,-2.5125 -3.64625,-1.73875 m 66.26125,170.8975 c -2.82625,-1.49125 -4.32125,-3.19375 -4.32125,-4.9275 0,-1.90875 1.8125,-3.7775 5.20125,-5.365 m -5.21125,9.745 4.09,0.535 -1.35125,-3.8075 m 0.17125,-2.54625 1.82,-3.7025 -4.03875,0.0575"
       style="fill:none;stroke:#000000;stroke-width:0.88499999;stroke-linecap:butt;stroke-linejoin:miter;stroke-miterlimit:22.9260006;stroke-dasharray:none;stroke-opacity:1"
       id="path5981"
       inkscape:connector-curvature="0" />
    <path
       d="m 60.993477,871.10997 3.486255,0 0,0.13625 -3.800005,3.9575 1.60875,0 c 0.38,0 0.6225,-0.0162 0.72625,-0.0463 0.1025,-0.03 0.195,-0.0912 0.2825,-0.185 0.08625,-0.0963 0.1825,-0.26875 0.28875,-0.51875 l 0.2025,0 -0.47875,1.495 -3.575,0 0,-0.15875 3.8,-3.955 -1.58,0 c -0.335,0 -0.53625,0.01 -0.605,0.0262 -0.1025,0.0225 -0.205,0.0813 -0.305,0.175 -0.10125,0.0925 -0.20375,0.2475 -0.31125,0.4625 l -0.2075,0 0.4675,-1.38875"
       style="fill:#000000;fill-opacity:1;fill-rule:nonzero;stroke:none"
       id="path5983"
       inkscape:connector-curvature="0" />
    <path
       d="m 65.084732,874.83747 0.90625,-0.44125 0.09,0 0,3.145 c 0,0.2075 0.009,0.33875 0.0262,0.39 0.0188,0.05 0.055,0.0888 0.10875,0.1175 0.055,0.0288 0.1675,0.0438 0.33625,0.0475 l 0,0.10125 -1.40125,0 0,-0.10125 c 0.17375,-0.004 0.29,-0.0188 0.34,-0.0463 0.0525,-0.0275 0.0875,-0.0625 0.1075,-0.10875 0.0187,-0.0425 0.0312,-0.1775 0.0312,-0.4 l 0,-2.01 c 0,-0.2725 -0.01,-0.44625 -0.0288,-0.52375 -0.0125,-0.0575 -0.035,-0.10125 -0.0687,-0.13 -0.0338,-0.025 -0.075,-0.04 -0.12375,-0.04 -0.0663,0 -0.16125,0.03 -0.2825,0.0862 l -0.0413,-0.0862"
       style="fill:#000000;fill-opacity:1;fill-rule:nonzero;stroke:none"
       id="path5985"
       inkscape:connector-curvature="0" />
    <path
       d="m 97.005972,756.57497 3.488758,0 0,0.1375 -3.801258,3.95625 1.60876,0 c 0.38124,0 0.6225,-0.015 0.72625,-0.045 0.10249,-0.03 0.19625,-0.0925 0.2825,-0.18625 0.0863,-0.0962 0.18249,-0.2675 0.28874,-0.5175 l 0.20251,0 -0.47875,1.495 -3.575,0 0,-0.16 3.80125,-3.95375 -1.58125,0 c -0.33375,0 -0.53625,0.01 -0.60625,0.025 -0.10125,0.0225 -0.205,0.0812 -0.30376,0.175 -0.1,0.0925 -0.20375,0.24875 -0.31,0.46375 l -0.20875,0 0.46625,-1.39"
       style="fill:#000000;fill-opacity:1;fill-rule:nonzero;stroke:none"
       id="path5987"
       inkscape:connector-curvature="0" />
    <path
       d="m 81.010982,781.27122 -0.0888,0.155 -0.76499,-0.505 -0.295,0.86875 -0.79625,1.19125 -0.785,0.795 -0.0175,-0.0113 -0.81875,0.42875 -0.835,0 -0.82875,-0.4175 -0.4175,-0.82875 0,-1.21875 0.395,-1.96625 0,-0.74375 -0.34125,-0.34 -0.7175,0 -0.7425,0.75875 -0.395,0.775 -0.155,-0.0888 0.39,-0.80375 0.835,-0.81625 1.24875,0 0.45,0.45 0,0.82875 -0.39,1.9725 0,1.14375 0.37875,0.7575 0.3625,0.35625 0.71875,0 0.7425,-0.3675 0.775,-1.15875 0.39375,-0.78 0.375,-1.12125 -0.75875,-0.7575 -0.79625,-1.1925 -0.40625,-1.21375 0,-0.83 0.845,-0.845 0.85125,0 0.0112,0.01 0.8125,0.4075 0.41875,0.83 0,1.6075 -0.39616,1.98375 -0.055,0.15375 0.7975,0.5325 z m -0.925,-2.69 0,-1.54375 -0.37875,-0.75375 -0.35251,-0.35625 -0.71749,0 -0.73125,0.73 0,0.74125 0.38375,1.1475 0.775,1.17125 0.66625,0.66625 0.355,-1.8025"
       style="fill:#000000;fill-opacity:1;fill-rule:nonzero;stroke:none"
       id="path5989"
       inkscape:connector-curvature="0" />
    <path
       d="m 85.237232,786.44247 -1.7775,0 0,-0.09 0.745,0 0,-3.785 -0.32125,0.32625 -0.40001,0.195 -0.0463,-0.0775 0.39,-0.19625 0.66501,-0.66 0,4.1975 0.745,0 0,0.09"
       style="fill:#000000;fill-opacity:1;fill-rule:nonzero;stroke:none"
       id="path5991"
       inkscape:connector-curvature="0" />
    <path
       d="m 179.82847,876.49122 -0.0875,0.15375 -0.76626,-0.505 -0.29625,0.86875 -0.79375,1.1925 -0.7875,0.795 -0.0163,-0.0113 -0.81875,0.42875 -0.835,0 -0.82875,-0.4175 -0.41875,-0.82875 0,-1.21875 0.3975,-1.9675 0,-0.7425 -0.3425,-0.34 -0.7175,0 -0.7425,0.75875 -0.39625,0.77375 -0.1525,-0.0875 0.38875,-0.8025 0.835,-0.8175 1.24875,0 0.45001,0.45 0,0.82875 -0.39,1.9725 0,1.14375 0.37875,0.7575 0.36249,0.35625 0.72,0 0.74125,-0.3675 0.775,-1.15875 0.39375,-0.78 0.375,-1.12125 -0.75875,-0.7575 -0.79624,-1.1925 -0.405,-1.21375 0,-0.83 0.845,-0.84625 0.85,0 0.0112,0.0113 0.81375,0.40625 0.41749,0.83 0,1.60875 -0.39625,1.98375 -0.055,0.15375 0.7975,0.5325 z m -0.92374,-2.69125 0,-1.5425 -0.38,-0.75375 -0.35,-0.35625 -0.72,0 -0.7325,0.72875 0,0.7425 0.385,1.1475 0.775,1.17125 0.665,0.665 0.3575,-1.8025"
       style="fill:#000000;fill-opacity:1;fill-rule:nonzero;stroke:none"
       id="path5993"
       inkscape:connector-curvature="0" />
    <path
       d="m 260.89348,972.02622 2.34499,0 0,0.20375 -0.11375,0 c -0.16625,0 -0.28875,0.0362 -0.37125,0.1075 -0.0813,0.0725 -0.12375,0.16 -0.12375,0.26625 0,0.1425 0.06,0.34125 0.18125,0.5925 l 1.225,2.5375 1.12625,-2.77875 c 0.0625,-0.15125 0.0913,-0.29875 0.0913,-0.445 0,-0.0662 -0.0113,-0.115 -0.0375,-0.14875 -0.0288,-0.04 -0.075,-0.0712 -0.135,-0.095 -0.065,-0.0238 -0.17375,-0.0362 -0.33125,-0.0362 l 0,-0.20375 1.6375,0 0,0.20375 c -0.135,0.015 -0.24,0.0425 -0.3125,0.0888 -0.0737,0.0425 -0.155,0.125 -0.2425,0.2475 -0.0338,0.0512 -0.0963,0.19 -0.1875,0.4225 l -2.0475,5.02 c -0.19875,0.48875 -0.45875,0.85625 -0.77875,1.105 -0.32125,0.24875 -0.6275,0.37375 -0.925,0.37375 -0.21625,0 -0.395,-0.0637 -0.53375,-0.18875 -0.13875,-0.1225 -0.2075,-0.265 -0.2075,-0.4275 0,-0.1525 0.05,-0.2775 0.14875,-0.37125 0.10125,-0.0925 0.24125,-0.14 0.41625,-0.14 0.12125,0 0.28625,0.04 0.495,0.1225 0.145,0.0538 0.2375,0.0825 0.27375,0.0825 0.10875,0 0.22875,-0.0588 0.36,-0.17125 0.13,-0.115 0.26,-0.33375 0.3925,-0.66 l 0.35875,-0.8725 -1.8075,-3.79625 c -0.0563,-0.1125 -0.14125,-0.255 -0.265,-0.4225 -0.0913,-0.1275 -0.1675,-0.21625 -0.225,-0.25875 -0.0838,-0.0588 -0.22,-0.11125 -0.40625,-0.15375 l 0,-0.20375"
       style="fill:#000000;fill-opacity:1;fill-rule:nonzero;stroke:none"
       id="path5995"
       inkscape:connector-curvature="0" />
    <path
       d="m 36.090977,1020.6637 c 0.17875,0.1888 0.315,0.38 0.40625,0.5713 0.06625,0.1325 0.17375,0.4775 0.325,1.0375 l 0.48375,-0.725 c 0.12625,-0.175 0.28125,-0.3438 0.46625,-0.5038 0.1825,-0.1587 0.3425,-0.2662 0.4825,-0.3262 0.0875,-0.036 0.18625,-0.054 0.2925,-0.054 0.1575,0 0.28125,0.041 0.375,0.1262 0.0925,0.084 0.14125,0.1875 0.14125,0.3075 0,0.1388 -0.02875,0.2338 -0.08375,0.2838 -0.10375,0.094 -0.22,0.14 -0.35125,0.14 -0.07625,0 -0.15875,-0.018 -0.2475,-0.05 -0.17125,-0.059 -0.2875,-0.09 -0.34625,-0.09 -0.0875,0 -0.19125,0.054 -0.3125,0.1537 -0.2275,0.1938 -0.4975,0.56 -0.8125,1.105 l 0.45,1.89 c 0.07,0.2875 0.1275,0.4638 0.17625,0.52 0.0475,0.055 0.09375,0.082 0.1425,0.082 0.0775,0 0.1675,-0.039 0.26875,-0.1237 0.20125,-0.1688 0.3725,-0.3875 0.51625,-0.6613 l 0.19125,0.1 c -0.23,0.4338 -0.5225,0.7913 -0.87875,1.0763 -0.2,0.1625 -0.37125,0.2425 -0.51,0.2425 -0.20375,0 -0.3675,-0.115 -0.48875,-0.3463 -0.0775,-0.1412 -0.23625,-0.7587 -0.47875,-1.8462 -0.57,0.995 -1.0275,1.6312 -1.3725,1.9175 -0.2225,0.1825 -0.43875,0.275 -0.64875,0.275 -0.14625,0 -0.27875,-0.054 -0.40125,-0.1588 -0.08625,-0.082 -0.13125,-0.1887 -0.13125,-0.3262 0,-0.12 0.04125,-0.22 0.12125,-0.3025 0.08,-0.079 0.17875,-0.1175 0.2975,-0.1175 0.115,0 0.24125,0.056 0.3725,0.175 0.095,0.086 0.16875,0.125 0.22,0.125 0.045,0 0.1,-0.03 0.17,-0.088 0.1725,-0.1388 0.4075,-0.4388 0.70375,-0.8975 0.295,-0.4625 0.49125,-0.7975 0.5825,-1.0038 -0.22875,-0.8887 -0.35,-1.36 -0.37,-1.41 -0.0825,-0.2375 -0.1925,-0.4062 -0.32875,-0.505 -0.13625,-0.099 -0.335,-0.1487 -0.59875,-0.1487 -0.08375,0 -0.18125,0 -0.29,0.011 l 0,-0.1988 1.46625,-0.2575"
       style="fill:#000000;fill-opacity:1;fill-rule:nonzero;stroke:none"
       id="path5997"
       inkscape:connector-curvature="0" />
    <path
       d="m 206.77722,950.13247 -1.88999,6.4825 c -0.1025,0.3525 -0.155,0.585 -0.155,0.6925 0,0.0362 0.0175,0.0712 0.0462,0.105 0.0325,0.0312 0.0637,0.05 0.0962,0.05 0.05,0 0.10499,-0.0262 0.17124,-0.0725 0.12501,-0.0863 0.33376,-0.3075 0.62751,-0.6575 l 0.18499,0.11375 c -0.2625,0.365 -0.53124,0.6625 -0.79874,0.89125 -0.27001,0.22625 -0.52001,0.3375 -0.75501,0.3375 -0.12625,0 -0.22625,-0.0412 -0.3075,-0.13 -0.0812,-0.0888 -0.12125,-0.21125 -0.12125,-0.3725 0,-0.21 0.0575,-0.49 0.16375,-0.84 l 0.21375,-0.6825 c -0.53,0.82 -1.01375,1.38625 -1.4475,1.70125 -0.30249,0.2175 -0.58999,0.32375 -0.865,0.32375 -0.27625,0 -0.52125,-0.1225 -0.72625,-0.36875 -0.20875,-0.24625 -0.31,-0.5825 -0.31,-1.01 0,-0.54375 0.17375,-1.1275 0.5225,-1.74625 0.345,-0.61875 0.80625,-1.12 1.37875,-1.50875 0.4475,-0.3125 0.8625,-0.46875 1.24,-0.46875 0.19875,0 0.36875,0.0412 0.51125,0.1225 0.14375,0.08 0.28375,0.21375 0.4225,0.40125 l 0.53875,-1.9125 c 0.04,-0.13625 0.0725,-0.2425 0.1,-0.32375 0.0425,-0.1475 0.0637,-0.2675 0.0637,-0.3625 0,-0.0787 -0.0263,-0.14 -0.0812,-0.1925 -0.0788,-0.0625 -0.1775,-0.0937 -0.29625,-0.0937 -0.085,0 -0.2225,0.0125 -0.4175,0.0387 l 0,-0.20375 1.89,-0.31375 z m -2.03999,3.90125 c 0,-0.235 -0.0675,-0.42375 -0.2025,-0.56625 -0.13375,-0.14375 -0.3075,-0.2125 -0.5175,-0.2125 -0.46001,0 -0.94126,0.38 -1.44125,1.14 -0.49876,0.7625 -0.74876,1.49 -0.74876,2.18625 0,0.27625 0.0613,0.485 0.18125,0.63 0.12125,0.14625 0.26625,0.2175 0.435,0.2175 0.37875,0 0.86,-0.4125 1.4325,-1.2375 0.57625,-0.8225 0.86125,-1.5425 0.86125,-2.1575"
       style="fill:#000000;fill-opacity:1;fill-rule:nonzero;stroke:none"
       id="path5999"
       inkscape:connector-curvature="0" />
    <path
       d="m 209.38597,953.41372 c -0.5175,0 -0.89999,0.14625 -1.15125,0.44125 -0.25125,0.295 -0.37625,0.7475 -0.37625,1.35375 0,0.7725 0.1625,1.385 0.48875,1.84 0.32625,0.4525 0.7625,0.68125 1.3075,0.68125 0.49,0 0.865,-0.16 1.12375,-0.48125 0.2575,-0.32 0.3875,-0.7875 0.3875,-1.39875 0,-0.565 -0.1125,-1.065 -0.33875,-1.495 -0.225,-0.43 -0.5375,-0.745 -0.9375,-0.94125 l -0.50375,0 z m 3.55375,0 -2.46,0 c 0.565,0.195 1.00126,0.48125 1.3,0.8625 0.30001,0.38375 0.45,0.84125 0.45,1.3725 0,0.73 -0.24249,1.31625 -0.7325,1.76375 -0.48874,0.445 -1.13624,0.67 -1.94125,0.67 -0.8275,0 -1.49375,-0.26625 -2,-0.7925 -0.50375,-0.5275 -0.75625,-1.22 -0.75625,-2.08125 0,-0.79875 0.24625,-1.46 0.7425,-1.98625 0.49626,-0.52875 1.12625,-0.7925 1.88626,-0.7925 l 3.51124,0 0,0.98375"
       style="fill:#000000;fill-opacity:1;fill-rule:nonzero;stroke:none"
       id="path6001"
       inkscape:connector-curvature="0" />
    <path
       d="m 90.950982,889.45122 1.22124,-5.83375 0.87751,0 -0.245,1.19125 c 0.29999,-0.45 0.59124,-0.78375 0.88125,-1 0.28625,-0.21625 0.58,-0.32375 0.87999,-0.32375 0.19751,0 0.44125,0.0712 0.73125,0.215 l -0.4075,0.9225 c -0.17124,-0.12625 -0.36124,-0.18625 -0.56499,-0.18625 -0.3475,0 -0.705,0.19375 -1.07125,0.5825 -0.3675,0.3875 -0.65376,1.085 -0.86125,2.0925 l -0.49625,2.34 -0.945,0"
       style="fill:#000000;fill-opacity:1;fill-rule:nonzero;stroke:none"
       id="path6003"
       inkscape:connector-curvature="0" />
    <path
       d="m 96.420982,891.69872 -0.495,0 0,-3.15 c -0.11875,0.1125 -0.27625,0.2275 -0.46875,0.34 -0.19375,0.11375 -0.365,0.19875 -0.52,0.2575 l 0,-0.48 c 0.27624,-0.13125 0.5175,-0.28875 0.72374,-0.47125 0.20875,-0.18625 0.355,-0.36375 0.44125,-0.53875 l 0.31875,0 0,4.0425"
       style="fill:#000000;fill-opacity:1;fill-rule:nonzero;stroke:none"
       id="path6005"
       inkscape:connector-curvature="0" />
    <path
       d="m 79.545982,949.56622 -1.1925,-3.61875 c -0.27875,0.004 -0.5625,-0.0238 -0.8575,-0.0825 l -0.64126,2.2525 c -0.085,0.2925 -0.12749,0.54 -0.12749,0.74 0,0.15375 0.0538,0.27625 0.15874,0.3625 0.0813,0.0675 0.30125,0.11625 0.66125,0.14375 l -0.0512,0.2025 -2.88375,0 0.0625,-0.2025 c 0.26875,-0.01 0.45375,-0.0375 0.54875,-0.0812 0.15,-0.065 0.25875,-0.14625 0.3275,-0.25375 0.11875,-0.1725 0.24,-0.47625 0.37,-0.91125 l 1.3,-4.49875 c 0.0888,-0.30125 0.1325,-0.5325 0.1325,-0.69875 0,-0.16875 -0.0675,-0.31125 -0.20625,-0.42875 -0.1375,-0.11625 -0.33375,-0.1725 -0.59,-0.16875 l 0.0663,-0.205 2.42875,0 c 0.81125,0 1.39875,0.15375 1.75625,0.4625 0.35875,0.3075 0.53875,0.7125 0.53875,1.21375 0,0.48 -0.18375,0.91875 -0.55125,1.31625 -0.37,0.39625 -0.87375,0.6475 -1.5125,0.755 l 0.7225,2.18 c 0.17625,0.535 0.3525,0.88375 0.53,1.04375 0.17375,0.16125 0.45875,0.25375 0.85,0.275 l -0.0613,0.2025 -1.77875,0 z m -1.95625,-4.015 c 0.23374,0.0337 0.44499,0.05 0.62624,0.05 0.63,0 1.12876,-0.17375 1.495,-0.525 0.36501,-0.35 0.54875,-0.78375 0.54875,-1.305 0,-0.40625 -0.11375,-0.71625 -0.3425,-0.93375 -0.23,-0.21625 -0.57249,-0.32375 -1.02999,-0.32375 -0.11876,0 -0.25751,0.015 -0.41876,0.0438 l -0.87874,2.99375"
       style="fill:#000000;fill-opacity:1;fill-rule:nonzero;stroke:none"
       id="path6007"
       inkscape:connector-curvature="0" />
    <path
       d="m 157.60473,950.80497 c 0.6025,-0.05 1.04624,-0.2525 1.3225,-0.60375 0.27875,-0.3525 0.41749,-0.88625 0.41749,-1.59875 0,-0.72125 -0.095,-1.2925 -0.2875,-1.7125 -0.19125,-0.4175 -0.4525,-0.6275 -0.77875,-0.6275 -0.25,0 -0.4275,0.1225 -0.52625,0.365 -0.1,0.24375 -0.1475,0.7375 -0.1475,1.48 l 0,2.6975 z m -0.73125,-2.5875 c 0,-1.00375 0.11375,-1.72375 0.34124,-2.1575 0.23001,-0.4375 0.60375,-0.65625 1.12126,-0.65625 0.58375,0 1.05875,0.25625 1.4175,0.7675 0.36125,0.51 0.5425,1.19375 0.5425,2.04625 0,0.84125 -0.23625,1.52 -0.70626,2.03125 -0.47124,0.515 -1.13499,0.81125 -1.98499,0.89125 l 0,2.14125 -0.73125,0 0,-2.12375 c -0.84751,-0.1025 -1.50626,-0.41625 -1.98125,-0.9425 -0.47501,-0.52625 -0.71251,-1.20625 -0.71251,-2.04 0,-0.76625 0.22875,-1.41 0.68125,-1.9275 0.45125,-0.51875 1.03,-0.8 1.74125,-0.84375 l 0,0.22625 c -0.4275,0.11 -0.76125,0.37875 -1.0025,0.80875 -0.23875,0.42625 -0.35875,0.9675 -0.35875,1.61875 0,0.76625 0.1375,1.37875 0.41375,1.8375 0.2775,0.46 0.68375,0.7525 1.21875,0.875 l 0,-2.5525"
       style="fill:#000000;fill-opacity:1;fill-rule:nonzero;stroke:none"
       id="path6009"
       inkscape:connector-curvature="0" />
    <path
       d="m 190.67097,949.18622 5.0725,-0.97125 3.52626,1.89 -5.27376,0.865 -3.325,-1.78375 z"
       style="fill:#000000;fill-opacity:1;fill-rule:evenodd;stroke:#000000;stroke-width:0.88499999;stroke-linecap:butt;stroke-linejoin:miter;stroke-miterlimit:22.9260006;stroke-dasharray:none;stroke-opacity:1"
       id="path6011"
       inkscape:connector-curvature="0" />
    <path
       d="m 176.49348,960.45872 1.21999,-5.8325 0.87876,0 -0.24751,1.19125 c 0.30251,-0.45 0.59376,-0.7825 0.88126,-0.99875 0.28875,-0.21625 0.5825,-0.325 0.88125,-0.325 0.2,0 0.4425,0.0713 0.7325,0.21625 l -0.4075,0.92125 c -0.17125,-0.125 -0.36,-0.18625 -0.56625,-0.18625 -0.34625,0 -0.70375,0.195 -1.07,0.5825 -0.3675,0.38875 -0.655,1.085 -0.8625,2.09125 l -0.49375,2.34 -0.94625,0"
       style="fill:#000000;fill-opacity:1;fill-rule:nonzero;stroke:none"
       id="path6013"
       inkscape:connector-curvature="0" />
    <path
       d="m 180.10223,960.72122 c 0,-0.47625 0.0487,-0.85625 0.145,-1.14875 0.0975,-0.29 0.24375,-0.51375 0.43625,-0.67125 0.19375,-0.1575 0.435,-0.23625 0.73,-0.23625 0.215,0 0.40625,0.0437 0.5675,0.13 0.16374,0.0888 0.29875,0.2125 0.40374,0.3775 0.10751,0.16125 0.19001,0.3625 0.25125,0.59625 0.06,0.2375 0.09,0.55375 0.09,0.9525 0,0.4725 -0.0488,0.855 -0.14751,1.145 -0.095,0.29 -0.23875,0.51375 -0.43375,0.6725 -0.19374,0.1575 -0.43625,0.23875 -0.73125,0.23875 -0.3875,0 -0.6925,-0.14125 -0.915,-0.4175 -0.26624,-0.33625 -0.39625,-0.88125 -0.39625,-1.63875 z m 0.50625,0 c 0,0.66125 0.0762,1.10125 0.23124,1.32125 0.155,0.21875 0.34626,0.32875 0.57375,0.32875 0.22625,0 0.4175,-0.11 0.5725,-0.33125 0.155,-0.22 0.2325,-0.65875 0.2325,-1.31875 0,-0.6625 -0.0775,-1.1025 -0.2325,-1.32125 -0.155,-0.21625 -0.3475,-0.325 -0.5775,-0.325 -0.22875,0 -0.41,0.095 -0.54375,0.28875 -0.17125,0.245 -0.25625,0.6975 -0.25625,1.3575"
       style="fill:#000000;fill-opacity:1;fill-rule:nonzero;stroke:none"
       id="path6015"
       inkscape:connector-curvature="0" />
    <path
       d="m 88.610982,855.28122 0,0.66375 c 0.265,-0.285 0.51874,-0.4925 0.75999,-0.6225 0.24125,-0.13125 0.5,-0.19375 0.78,-0.19375 0.3325,0 0.60875,0.0912 0.82875,0.2775 0.22001,0.1825 0.36625,0.41375 0.43875,0.6875 0.06,0.21 0.0875,0.61125 0.0875,1.20375 l 0,1.99875 c 0,0.395 0.0362,0.6425 0.1075,0.73875 0.0712,0.0975 0.22125,0.15875 0.44749,0.185 l 0,0.1975 -2.59874,0 0,-0.1975 c 0.19625,-0.0262 0.33375,-0.10625 0.41875,-0.2425 0.0588,-0.09 0.0888,-0.3175 0.0888,-0.68125 l 0,-2.28375 c 0,-0.4225 -0.0188,-0.68875 -0.05,-0.7975 -0.0337,-0.11 -0.0887,-0.195 -0.1675,-0.255 -0.0787,-0.0613 -0.16625,-0.0913 -0.26125,-0.0913 -0.31625,0 -0.6075,0.225 -0.88,0.67625 l 0,2.75125 c 0,0.38375 0.0362,0.6275 0.1075,0.73 0.0725,0.10375 0.205,0.1675 0.39875,0.19375 l 0,0.1975 -2.59875,0 0,-0.1975 c 0.21625,-0.0212 0.37,-0.0912 0.46125,-0.21 0.0625,-0.0812 0.095,-0.31875 0.095,-0.71375 l 0,-2.90125 c 0,-0.3875 -0.0362,-0.6275 -0.1075,-0.72375 -0.0712,-0.095 -0.22125,-0.1575 -0.44875,-0.1875 l 0,-0.2025 2.0925,0"
       style="fill:#000000;fill-opacity:1;fill-rule:nonzero;stroke:none"
       id="path6017"
       inkscape:connector-curvature="0" />
    <path
       d="m 94.512232,861.21622 c 0.0387,-0.075 0.0675,-0.1525 0.0888,-0.235 0.02,-0.0825 0.03,-0.16375 0.03,-0.24375 0,-0.0688 -0.02,-0.16625 -0.0588,-0.2925 -0.04,-0.12375 -0.06,-0.215 -0.06,-0.2775 0,-0.085 0.0275,-0.16125 0.0837,-0.2225 0.055,-0.0613 0.125,-0.0925 0.20499,-0.0925 0.0913,0 0.16375,0.0362 0.2175,0.105 0.0525,0.0687 0.0788,0.165 0.0788,0.28625 0,0.11375 -0.0338,0.25625 -0.10125,0.43125 -0.0675,0.17375 -0.19375,0.435 -0.3775,0.78125 l -0.68,1.27875 -0.2025,0 -0.8275,-2.08875 c -0.0637,-0.16875 -0.12375,-0.28125 -0.18,-0.3375 -0.0563,-0.0562 -0.125,-0.0837 -0.2075,-0.0837 l -0.10125,0 0,-0.1025 c 0.12375,-0.0275 0.24125,-0.0637 0.35,-0.10875 0.11125,-0.045 0.215,-0.0987 0.31,-0.16125 l 0.0425,0.035 0.89,2.27125 0.5,-0.9425"
       style="fill:#000000;fill-opacity:1;fill-rule:nonzero;stroke:none"
       id="path6019"
       inkscape:connector-curvature="0" />
    <path
       d="m 130.21098,869.08747 0,0.665 c 0.26375,-0.285 0.51625,-0.4925 0.7575,-0.6225 0.2425,-0.13125 0.5025,-0.195 0.78,-0.195 0.33375,0 0.61,0.0913 0.83,0.2775 0.21874,0.18375 0.365,0.41375 0.4375,0.6875 0.0613,0.21 0.0888,0.6125 0.0888,1.20375 l 0,1.99875 c 0,0.39625 0.035,0.64375 0.10625,0.73875 0.0725,0.0975 0.2225,0.16 0.44875,0.18625 l 0,0.19625 -2.59875,0 0,-0.19625 c 0.195,-0.0263 0.33375,-0.10625 0.4175,-0.2425 0.0587,-0.0913 0.09,-0.31875 0.09,-0.6825 l 0,-2.28375 c 0,-0.42125 -0.0162,-0.6875 -0.0487,-0.79625 -0.035,-0.11125 -0.09,-0.195 -0.17,-0.255 -0.0787,-0.0625 -0.165,-0.0925 -0.26,-0.0925 -0.315,0 -0.6075,0.225 -0.87875,0.6775 l 0,2.75 c 0,0.385 0.0362,0.62875 0.10625,0.73125 0.0725,0.10375 0.20375,0.1675 0.39875,0.19375 l 0,0.19625 -2.59875,0 0,-0.19625 c 0.21625,-0.0225 0.37,-0.0925 0.46125,-0.21 0.0625,-0.0813 0.0937,-0.31875 0.0937,-0.715 l 0,-2.9 c 0,-0.38875 -0.035,-0.6275 -0.10625,-0.725 -0.0712,-0.095 -0.22125,-0.15625 -0.44875,-0.18625 l 0,-0.20375 2.09375,0"
       style="fill:#000000;fill-opacity:1;fill-rule:nonzero;stroke:none"
       id="path6021"
       inkscape:connector-curvature="0" />
    <path
       d="m 119.04348,953.34872 c 0.605,-0.05 1.04624,-0.25375 1.32499,-0.6025 0.2775,-0.35375 0.4175,-0.88625 0.4175,-1.60125 0,-0.72125 -0.095,-1.29125 -0.29,-1.71125 -0.19,-0.41875 -0.45125,-0.6275 -0.7775,-0.6275 -0.25125,0 -0.42625,0.1225 -0.52625,0.365 -0.1,0.2425 -0.14875,0.7375 -0.14875,1.48 l 0,2.6975 z m -0.73126,-2.5875 c 0,-1.00375 0.115,-1.7225 0.34375,-2.15875 0.2275,-0.4375 0.60125,-0.65375 1.11875,-0.65375 0.585,0 1.06,0.255 1.42,0.7675 0.3625,0.51 0.54125,1.1925 0.54125,2.045 0,0.84125 -0.23625,1.52 -0.70625,2.0325 -0.4725,0.51375 -1.1325,0.80875 -1.98625,0.89 l 0,2.1425 -0.73125,0 0,-2.12625 c -0.845,-0.1025 -1.50625,-0.41625 -1.98,-0.94375 -0.47375,-0.52375 -0.71,-1.205 -0.71,-2.03875 0,-0.76625 0.22625,-1.40875 0.67875,-1.925 0.45125,-0.51875 1.03125,-0.8 1.7425,-0.84375 l 0,0.225 c -0.42875,0.11 -0.76125,0.37875 -1.0025,0.80875 -0.24,0.4275 -0.36,0.9675 -0.36,1.62 0,0.765 0.13875,1.3775 0.415,1.83625 0.2775,0.46 0.6825,0.7525 1.21625,0.87625 l 0,-2.55375"
       style="fill:#000000;fill-opacity:1;fill-rule:nonzero;stroke:none"
       id="path6023"
       inkscape:connector-curvature="0" />
    <path
       d="m 124.39223,955.82247 -1.73626,0 0,-0.115 0.105,0 c 0.1975,0 0.33625,-0.0362 0.415,-0.11 0.0788,-0.0763 0.1175,-0.20625 0.1175,-0.3925 l 0,-2.5375 c 0,-0.05 -0.01,-0.0888 -0.0312,-0.12 -0.02,-0.0275 -0.0488,-0.0425 -0.0863,-0.0425 -0.0238,0 -0.0613,0.009 -0.10625,0.0238 -0.0475,0.0125 -0.0975,0.0325 -0.15001,0.0587 l -0.23124,0.1125 -0.0562,-0.0937 1.0575,-0.57375 0.0913,0 0,3.1725 c 0,0.19 0.035,0.325 0.1075,0.395 0.0737,0.0737 0.20375,0.1075 0.3975,0.1075 l 0.10625,0 0,0.115"
       style="fill:#000000;fill-opacity:1;fill-rule:nonzero;stroke:none"
       id="path6025"
       inkscape:connector-curvature="0" />
    <path
       d="m 135.45098,982.45622 c 0.60375,-0.05 1.04625,-0.2525 1.32375,-0.60375 0.27875,-0.3525 0.41875,-0.885 0.41875,-1.59875 0,-0.72125 -0.0962,-1.29125 -0.28875,-1.71125 -0.19125,-0.41875 -0.45125,-0.62875 -0.77875,-0.62875 -0.25125,0 -0.4275,0.1225 -0.52751,0.365 -0.0987,0.2425 -0.1475,0.7375 -0.1475,1.48 l 0,2.6975 z m -0.73125,-2.5875 c 0,-1.0025 0.115,-1.7225 0.34374,-2.15875 0.22875,-0.43625 0.60126,-0.65375 1.11875,-0.65375 0.58626,0 1.06,0.25625 1.42,0.7675 0.36125,0.51 0.54125,1.1925 0.54125,2.045 0,0.8425 -0.23625,1.52 -0.70625,2.0325 -0.47,0.515 -1.1325,0.80875 -1.98625,0.89125 l 0,2.14125 -0.73125,0 0,-2.125 c -0.84625,-0.1025 -1.505,-0.415 -1.98,-0.94375 -0.475,-0.52375 -0.71125,-1.20625 -0.71125,-2.03875 0,-0.76625 0.22875,-1.41 0.68,-1.92625 0.45125,-0.51875 1.03125,-0.8 1.74,-0.84375 l 0,0.22625 c -0.425,0.10875 -0.75875,0.3775 -0.99875,0.80875 -0.24125,0.425 -0.36125,0.96625 -0.36125,1.61875 0,0.76375 0.13875,1.37875 0.41376,1.83625 0.27749,0.46125 0.6825,0.7525 1.2175,0.875 l 0,-2.5525"
       style="fill:#000000;fill-opacity:1;fill-rule:nonzero;stroke:none"
       id="path6027"
       inkscape:connector-curvature="0" />
    <path
       d="m 140.59723,983.04122 c 0,-0.6 -0.0575,-1.045 -0.17625,-1.3375 -0.1175,-0.29375 -0.2975,-0.43875 -0.535,-0.43875 -0.24,0 -0.42125,0.145 -0.53875,0.43875 -0.11875,0.2925 -0.175,0.7375 -0.175,1.3375 0,0.59875 0.0563,1.04625 0.175,1.34 0.1175,0.29375 0.29875,0.43875 0.53875,0.43875 0.2375,0 0.4175,-0.145 0.535,-0.43875 0.11875,-0.29375 0.17625,-0.74125 0.17625,-1.34 z m 0.53625,0 c 0,0.615 -0.11,1.09875 -0.3325,1.4475 -0.2225,0.35 -0.5275,0.52625 -0.915,0.52625 -0.39125,0 -0.69375,-0.17625 -0.9175,-0.52625 -0.22251,-0.34875 -0.3325,-0.8325 -0.3325,-1.4475 0,-0.61625 0.10999,-1.09875 0.3325,-1.4475 0.22374,-0.34875 0.52625,-0.52375 0.9175,-0.52375 0.3875,0 0.6925,0.175 0.915,0.52375 0.2225,0.34875 0.3325,0.83125 0.3325,1.4475"
       style="fill:#000000;fill-opacity:1;fill-rule:nonzero;stroke:none"
       id="path6029"
       inkscape:connector-curvature="0" />
  </g>
</svg>
