<?xml version="1.0" encoding="UTF-8" standalone="no"?>
<!-- Created with Inkscape (http://www.inkscape.org/) -->

<svg
   xmlns:dc="http://purl.org/dc/elements/1.1/"
   xmlns:cc="http://creativecommons.org/ns#"
   xmlns:rdf="http://www.w3.org/1999/02/22-rdf-syntax-ns#"
   xmlns:svg="http://www.w3.org/2000/svg"
   xmlns="http://www.w3.org/2000/svg"
   xmlns:sodipodi="http://sodipodi.sourceforge.net/DTD/sodipodi-0.dtd"
   xmlns:inkscape="http://www.inkscape.org/namespaces/inkscape"
   width="85.976883mm"
   height="58.857075mm"
   viewBox="0 0 304.6425 208.54869"
   id="svg8266"
   version="1.1"
   inkscape:version="0.91 r13725"
   sodipodi:docname="fig2.svg">
  <defs
     id="defs8268">
    <clipPath
       id="clipPath6043"
       clipPathUnits="userSpaceOnUse">
      <path
         inkscape:connector-curvature="0"
         id="path6045"
         d="m 305.348,239.811 243.723,0 0,-166.847 -243.723,0" />
    </clipPath>
    <clipPath
       id="clipPath6057"
       clipPathUnits="userSpaceOnUse">
      <path
         inkscape:connector-curvature="0"
         id="path6059"
         d="m 305.348,239.811 243.723,0 0,-166.847 -243.723,0" />
    </clipPath>
    <clipPath
       id="clipPath6119"
       clipPathUnits="userSpaceOnUse">
      <path
         inkscape:connector-curvature="0"
         id="path6121"
         d="m 305.348,239.811 243.723,0 0,-166.847 -243.723,0" />
    </clipPath>
    <clipPath
       id="clipPath6143"
       clipPathUnits="userSpaceOnUse">
      <path
         inkscape:connector-curvature="0"
         id="path6145"
         d="m 305.348,239.811 243.723,0 0,-166.847 -243.723,0" />
    </clipPath>
  </defs>
  <sodipodi:namedview
     id="base"
     pagecolor="#ffffff"
     bordercolor="#666666"
     borderopacity="1.0"
     inkscape:pageopacity="0.0"
     inkscape:pageshadow="2"
     inkscape:zoom="1.4"
     inkscape:cx="208.62593"
     inkscape:cy="112.83581"
     inkscape:document-units="px"
     inkscape:current-layer="layer1"
     showgrid="false"
     fit-margin-top="0"
     fit-margin-left="0"
     fit-margin-right="0"
     fit-margin-bottom="0"
     inkscape:window-width="1366"
     inkscape:window-height="690"
     inkscape:window-x="0"
     inkscape:window-y="25"
     inkscape:window-maximized="1" />
  <metadata
     id="metadata8271">
    <rdf:RDF>
      <cc:Work
         rdf:about="">
        <dc:format>image/svg+xml</dc:format>
        <dc:type
           rdf:resource="http://purl.org/dc/dcmitype/StillImage" />
        <dc:title></dc:title>
      </cc:Work>
    </rdf:RDF>
  </metadata>
  <g
     inkscape:label="Layer 1"
     inkscape:groupmode="layer"
     id="layer1"
     transform="translate(-393.39304,-785.23072)">
    <g
       id="g7906"
       transform="matrix(1.25,0,0,-1.25,-528.24374,686.60971)">
      <g
         transform="translate(431.95242,-318.69976)"
         id="g6041"
         clip-path="url(#clipPath6043)">
        <path
           d="m 427.569,204.651 c 8.316,-0.423 14.892,-9.208 14.892,-19.899 0,-6.165 -2.227,-11.99 -6.027,-15.759 m -21.498,19.981 0,46.541 m -1.49,-1.847 1.49,2.299 1.491,-2.299 m 12.748,-28.168 -1.624,-0.797 1.418,-1.063 m 40.285,-29.104 0.603,1.706 -1.756,-0.232 m -57.421,-9.687 -1.668,-0.701 1.143,-0.967 0.209,-0.177 m 26.598,6.242 -0.478,-1.745 1.734,0.358"
           style="fill:none;stroke:#000000;stroke-width:0.58200002;stroke-linecap:butt;stroke-linejoin:miter;stroke-miterlimit:22.9260006;stroke-dasharray:none;stroke-opacity:1"
           id="path6047"
           inkscape:connector-curvature="0" />
      </g>
      <path
         inkscape:connector-curvature="0"
         id="path6049"
         style="fill:none;stroke:#ffffff;stroke-width:0.58200002;stroke-linecap:butt;stroke-linejoin:miter;stroke-miterlimit:22.9260006;stroke-dasharray:none;stroke-opacity:1"
         d="m 782.47342,-173.45276 c 1.213,-0.542 2.477,-0.994 3.471,-1.895 0.994,-0.9 1.484,-0.827 1.894,-1.894 0.325,-0.842 1.026,-2.525 2.21,-2.525 1.299,0 2.525,-0.565 2.525,-1.894" />
      <path
         inkscape:connector-curvature="0"
         id="path6051"
         style="fill:none;stroke:#000000;stroke-width:0.58200002;stroke-linecap:butt;stroke-linejoin:miter;stroke-miterlimit:22.9260006;stroke-dasharray:none;stroke-opacity:1"
         d="m 877.73542,-128.99176 c 0.099,-0.253 0.149,-0.507 0.149,-0.762 0,-4.289 -13.916,-7.769 -31.075,-7.769 -17.161,0 -31.076,3.48 -31.076,7.769" />
      <g
         transform="translate(431.95242,-318.69976)"
         id="g6055"
         clip-path="url(#clipPath6057)">
        <path
           d="m 414.857,103.488 c 17.159,0 31.075,-3.479 31.075,-7.769 0,-4.289 -13.916,-7.769 -31.075,-7.769 -17.161,0 -31.076,3.48 -31.076,7.769 0,4.29 13.915,7.769 31.076,7.769 z m 0,85.458 0,-93.227"
           style="fill:none;stroke:#000000;stroke-width:0.58200002;stroke-linecap:butt;stroke-linejoin:miter;stroke-miterlimit:22.9260006;stroke-dasharray:5.8258, 2.9131;stroke-dashoffset:0;stroke-opacity:1"
           id="path6061"
           inkscape:connector-curvature="0" />
        <path
           d="m 311.187,73.624 53.234,53.174 181.124,-0.003"
           style="fill:none;stroke:#000000;stroke-width:0.58200002;stroke-linecap:butt;stroke-linejoin:miter;stroke-miterlimit:22.9260006;stroke-dasharray:none;stroke-opacity:1"
           id="path6063"
           inkscape:connector-curvature="0" />
        <path
           d="m 311.44,75.976 -0.572,-2.671 2.674,0.568"
           style="fill:none;stroke:#000000;stroke-width:0.58099997;stroke-linecap:butt;stroke-linejoin:miter;stroke-miterlimit:22.9260006;stroke-dasharray:none;stroke-opacity:1"
           id="path6065"
           inkscape:connector-curvature="0" />
        <path
           d="m 543.7,128.285 2.299,-1.49 -2.299,-1.492 m -179.341,1.492 0,95.699 m -1.491,-1.846 1.491,2.299 1.491,-2.299 m 22.899,-57.499 26.108,25.797 43.132,0"
           style="fill:none;stroke:#000000;stroke-width:0.58200002;stroke-linecap:butt;stroke-linejoin:miter;stroke-miterlimit:22.9260006;stroke-dasharray:none;stroke-opacity:1"
           id="path6067"
           inkscape:connector-curvature="0" />
      </g>
      <path
         inkscape:connector-curvature="0"
         id="path6069"
         style="fill:none;stroke:#000000;stroke-width:0.58099997;stroke-linecap:butt;stroke-linejoin:miter;stroke-miterlimit:22.9260006;stroke-dasharray:none;stroke-opacity:1"
         d="m 820.96742,-153.20076 -0.586,-2.668 2.675,0.554" />
      <path
         inkscape:connector-curvature="0"
         id="path6071"
         style="fill:none;stroke:#000000;stroke-width:0.58200002;stroke-linecap:butt;stroke-linejoin:miter;stroke-miterlimit:22.9260006;stroke-dasharray:none;stroke-opacity:1"
         d="m 888.09642,-128.26276 2.298,-1.491 -2.298,-1.491 m -72.363,1.491 0,40.344 m 62.151,-40.344 0,40.344" />
      <path
         inkscape:connector-curvature="0"
         id="path6073"
         style="fill:none;stroke:#000000;stroke-width:0.58200002;stroke-linecap:butt;stroke-linejoin:miter;stroke-miterlimit:22.9260006;stroke-dasharray:5.8258, 2.9131;stroke-dashoffset:0;stroke-opacity:1"
         d="m 846.80942,-121.99376 c 17.16,0 31.076,-3.479 31.076,-7.769 0,-4.29 -13.916,-7.769 -31.076,-7.769 -17.159,0 -31.075,3.479 -31.075,7.769 0,4.29 13.916,7.769 31.075,7.769 z" />
      <path
         inkscape:connector-curvature="0"
         id="path6075"
         style="fill:none;stroke:#000000;stroke-width:0.58200002;stroke-linecap:butt;stroke-linejoin:miter;stroke-miterlimit:22.9260006;stroke-dasharray:none;stroke-opacity:1"
         d="m 765.23542,-222.98076 81.574,0 31.075,31.076" />
      <path
         inkscape:connector-curvature="0"
         id="path6077"
         style="fill:none;stroke:#000000;stroke-width:0.58200002;stroke-linecap:butt;stroke-linejoin:miter;stroke-miterlimit:22.9260006;stroke-dasharray:5.8258, 2.9131;stroke-dashoffset:0;stroke-opacity:1"
         d="m 749.69842,-238.54576 167.524,0.137 46.396,46.504 m -116.808,62.151 70.537,-108.764" />
      <path
         inkscape:connector-curvature="0"
         id="path6079"
         style="fill:none;stroke:#000000;stroke-width:0.58200002;stroke-linecap:butt;stroke-linejoin:miter;stroke-miterlimit:22.9260006;stroke-dasharray:none;stroke-opacity:1"
         d="m 859.52442,-134.24376 -25.001,-25.238" />
      <path
         inkscape:connector-curvature="0"
         id="path6081"
         style="fill:none;stroke:#000000;stroke-width:0.58099997;stroke-linecap:butt;stroke-linejoin:miter;stroke-miterlimit:22.9260006;stroke-dasharray:none;stroke-opacity:1"
         d="m 836.87542,-159.21876 -2.67,-0.583 0.557,2.675" />
      <path
         inkscape:connector-curvature="0"
         id="path6083"
         style="fill:none;stroke:#000000;stroke-width:0.58200002;stroke-linecap:butt;stroke-linejoin:miter;stroke-miterlimit:22.9260006;stroke-dasharray:none;stroke-opacity:1"
         d="m 859.52442,-134.24376 37.197,0" />
      <path
         inkscape:connector-curvature="0"
         id="path6085"
         style="fill:none;stroke:#000000;stroke-width:0.57999998;stroke-linecap:butt;stroke-linejoin:miter;stroke-miterlimit:22.9260006;stroke-dasharray:none;stroke-opacity:1"
         d="m 894.88242,-132.75976 2.29,-1.484 -2.29,-1.486" />
      <path
         inkscape:connector-curvature="0"
         id="path6087"
         style="fill:none;stroke:#000000;stroke-width:0.58200002;stroke-linecap:butt;stroke-linejoin:miter;stroke-miterlimit:22.9260006;stroke-dasharray:none;stroke-opacity:1"
         d="m 859.52442,-134.22076 -0.287,28.575" />
      <path
         inkscape:connector-curvature="0"
         id="path6089"
         style="fill:none;stroke:#000000;stroke-width:0.57999998;stroke-linecap:butt;stroke-linejoin:miter;stroke-miterlimit:22.9260006;stroke-dasharray:none;stroke-opacity:1"
         d="m 857.77342,-107.49976 1.46,2.304 1.508,-2.274" />
      <path
         inkscape:connector-curvature="0"
         id="path6091"
         style="fill:none;stroke:#000000;stroke-width:0.58200002;stroke-linecap:butt;stroke-linejoin:miter;stroke-miterlimit:22.9260006;stroke-dasharray:none;stroke-opacity:1"
         d="m 902.07742,-142.32676 c -10.284,-6.754 -30.826,-10.998 -53.217,-10.998 -2.692,0 -5.391,0.063 -8.053,0.184" />
      <path
         inkscape:connector-curvature="0"
         id="path6093"
         style="fill:#000000;fill-opacity:1;fill-rule:nonzero;stroke:none"
         d="m 843.10842,-85.01776 2.039,0 0,-0.08 -2.222,-2.313 0.94,0 c 0.223,0 0.364,0.009 0.425,0.026 0.06,0.017 0.114,0.054 0.165,0.108 0.051,0.056 0.107,0.158 0.169,0.303 l 0.118,0 -0.279,-0.873 -2.09,0 0,0.093 2.221,2.312 -0.924,0 c -0.195,0 -0.313,-0.006 -0.353,-0.016 -0.06,-0.013 -0.121,-0.047 -0.178,-0.102 -0.06,-0.054 -0.12,-0.144 -0.182,-0.27 l -0.122,0 0.273,0.812" />
      <path
         inkscape:connector-curvature="0"
         id="path6095"
         style="fill:#000000;fill-opacity:1;fill-rule:nonzero;stroke:none"
         d="m 820.86942,-148.50676 c 0.105,-0.111 0.184,-0.223 0.238,-0.333 0.039,-0.078 0.102,-0.28 0.19,-0.609 l 0.283,0.425 c 0.074,0.102 0.165,0.201 0.272,0.294 0.107,0.094 0.201,0.156 0.282,0.19 0.052,0.023 0.109,0.033 0.171,0.033 0.092,0 0.165,-0.025 0.22,-0.074 0.055,-0.049 0.082,-0.109 0.082,-0.179 0,-0.081 -0.016,-0.138 -0.048,-0.167 -0.061,-0.054 -0.129,-0.081 -0.205,-0.081 -0.045,0 -0.094,0.009 -0.145,0.03 -0.101,0.033 -0.169,0.051 -0.203,0.051 -0.052,0 -0.112,-0.031 -0.183,-0.09 -0.132,-0.112 -0.291,-0.326 -0.474,-0.646 l 0.263,-1.105 c 0.04,-0.169 0.074,-0.271 0.102,-0.304 0.028,-0.032 0.056,-0.049 0.084,-0.049 0.045,0 0.097,0.025 0.156,0.075 0.119,0.097 0.219,0.226 0.303,0.384 l 0.112,-0.057 c -0.135,-0.254 -0.306,-0.463 -0.514,-0.63 -0.117,-0.094 -0.218,-0.142 -0.299,-0.142 -0.119,0 -0.214,0.068 -0.285,0.202 -0.045,0.084 -0.139,0.445 -0.28,1.08 -0.334,-0.581 -0.601,-0.953 -0.802,-1.121 -0.131,-0.107 -0.257,-0.161 -0.38,-0.161 -0.085,0 -0.163,0.032 -0.235,0.094 -0.05,0.048 -0.076,0.109 -0.076,0.189 0,0.071 0.024,0.13 0.071,0.177 0.046,0.047 0.105,0.071 0.173,0.071 0.069,0 0.142,-0.035 0.218,-0.104 0.056,-0.05 0.099,-0.073 0.129,-0.073 0.026,0 0.059,0.017 0.1,0.051 0.1,0.082 0.238,0.256 0.411,0.526 0.173,0.27 0.287,0.465 0.34,0.586 -0.133,0.52 -0.204,0.795 -0.215,0.824 -0.05,0.14 -0.114,0.237 -0.193,0.297 -0.079,0.058 -0.195,0.086 -0.35,0.086 -0.049,0 -0.107,-0.002 -0.17,-0.007 l 0,0.116 0.857,0.151" />
      <path
         inkscape:connector-curvature="0"
         id="path6097"
         style="fill:#000000;fill-opacity:1;fill-rule:nonzero;stroke:none"
         d="m 790.66542,-96.43176 3.022,0 0,-0.12 -3.233,-4.028 0.504,0 c 0.544,0 0.928,0.027 1.151,0.081 0.224,0.054 0.41,0.146 0.559,0.28 0.149,0.132 0.273,0.321 0.374,0.565 l 0.123,0 -0.376,-1.134 -3.132,0 0,0.093 3.234,4.027 -0.903,0 c -0.393,0 -0.67,-0.017 -0.831,-0.053 -0.16,-0.035 -0.298,-0.106 -0.413,-0.215 -0.115,-0.107 -0.211,-0.27 -0.29,-0.49 l -0.113,0 0.324,0.994" />
      <path
         inkscape:connector-curvature="0"
         id="path6099"
         style="fill:#000000;fill-opacity:1;fill-rule:nonzero;stroke:none"
         d="m 741.14742,-238.78376 1.474,0 -0.035,-0.119 c -0.207,-0.031 -0.39,-0.092 -0.544,-0.189 -0.156,-0.095 -0.367,-0.283 -0.635,-0.569 l -1.13,-1.157 0.318,-1.165 c 0.03,-0.112 0.086,-0.285 0.166,-0.517 0.052,-0.15 0.104,-0.257 0.155,-0.318 0.052,-0.063 0.116,-0.11 0.194,-0.143 0.078,-0.034 0.197,-0.054 0.355,-0.06 l -0.036,-0.119 -1.708,0 0.035,0.119 c 0.175,0.006 0.302,0.041 0.38,0.1 0.057,0.043 0.086,0.098 0.086,0.167 0,0.06 -0.028,0.192 -0.084,0.395 l -0.305,1.094 -1.021,-1.03 c -0.199,-0.203 -0.317,-0.336 -0.355,-0.402 -0.025,-0.037 -0.037,-0.075 -0.037,-0.112 0,-0.064 0.033,-0.117 0.096,-0.158 0.031,-0.016 0.122,-0.035 0.273,-0.054 l -0.031,-0.119 -1.449,0 0.035,0.119 c 0.183,0.017 0.332,0.059 0.447,0.126 0.168,0.099 0.402,0.3 0.7,0.6 l 1.265,1.272 -0.346,1.255 c -0.105,0.386 -0.197,0.623 -0.276,0.711 -0.077,0.09 -0.214,0.141 -0.408,0.154 l 0.032,0.119 1.558,0 -0.039,-0.119 c -0.144,0 -0.242,-0.009 -0.291,-0.028 -0.05,-0.017 -0.089,-0.047 -0.116,-0.084 -0.026,-0.037 -0.04,-0.08 -0.04,-0.127 0,-0.05 0.026,-0.17 0.078,-0.359 l 0.294,-1.072 0.684,0.679 c 0.27,0.272 0.455,0.489 0.557,0.655 0.036,0.056 0.054,0.107 0.054,0.153 0,0.049 -0.021,0.087 -0.062,0.115 -0.056,0.039 -0.165,0.06 -0.324,0.068 l 0.036,0.119" />
      <path
         inkscape:connector-curvature="0"
         id="path6101"
         style="fill:#000000;fill-opacity:1;fill-rule:nonzero;stroke:none"
         d="m 762.64542,-215.14576 1.473,0 -0.035,-0.121 c -0.207,-0.028 -0.39,-0.091 -0.544,-0.187 -0.156,-0.095 -0.367,-0.284 -0.635,-0.569 l -1.13,-1.157 0.318,-1.165 c 0.03,-0.112 0.086,-0.284 0.166,-0.518 0.052,-0.15 0.104,-0.255 0.155,-0.317 0.052,-0.064 0.116,-0.111 0.194,-0.143 0.078,-0.035 0.197,-0.054 0.355,-0.061 l -0.036,-0.118 -1.708,0 0.035,0.118 c 0.176,0.007 0.302,0.041 0.379,0.101 0.058,0.042 0.087,0.098 0.087,0.168 0,0.058 -0.029,0.19 -0.083,0.394 l -0.306,1.095 -1.02,-1.03 c -0.2,-0.205 -0.318,-0.338 -0.357,-0.404 -0.024,-0.038 -0.036,-0.075 -0.036,-0.112 0,-0.063 0.033,-0.116 0.096,-0.156 0.031,-0.017 0.122,-0.036 0.273,-0.056 l -0.031,-0.118 -1.449,0 0.035,0.118 c 0.183,0.019 0.332,0.06 0.447,0.126 0.169,0.101 0.402,0.301 0.7,0.602 l 1.265,1.271 -0.346,1.256 c -0.105,0.385 -0.197,0.622 -0.275,0.711 -0.078,0.089 -0.215,0.14 -0.409,0.151 l 0.032,0.121 1.558,0 -0.039,-0.121 c -0.143,0 -0.241,-0.008 -0.291,-0.026 -0.05,-0.019 -0.089,-0.046 -0.115,-0.083 -0.027,-0.038 -0.041,-0.081 -0.041,-0.128 0,-0.05 0.026,-0.171 0.078,-0.359 l 0.294,-1.072 0.685,0.68 c 0.269,0.27 0.455,0.487 0.556,0.652 0.036,0.057 0.054,0.109 0.054,0.155 0,0.048 -0.02,0.087 -0.061,0.115 -0.057,0.039 -0.166,0.061 -0.325,0.066 l 0.037,0.121" />
      <path
         inkscape:connector-curvature="0"
         id="path6103"
         style="fill:#000000;fill-opacity:1;fill-rule:nonzero;stroke:none"
         d="m 763.74642,-218.69776 0.019,0.058 0.695,0 c 0.295,0 0.513,-0.032 0.655,-0.1 0.142,-0.067 0.255,-0.173 0.34,-0.32 0.084,-0.144 0.127,-0.299 0.127,-0.465 0,-0.142 -0.025,-0.281 -0.074,-0.416 -0.048,-0.133 -0.104,-0.242 -0.165,-0.322 -0.062,-0.081 -0.156,-0.169 -0.283,-0.267 -0.129,-0.097 -0.266,-0.17 -0.415,-0.216 -0.149,-0.047 -0.334,-0.07 -0.558,-0.07 l -0.92,0 0.02,0.059 c 0.085,0.002 0.142,0.009 0.17,0.024 0.043,0.016 0.075,0.042 0.095,0.072 0.031,0.045 0.065,0.136 0.105,0.271 l 0.385,1.318 c 0.03,0.104 0.044,0.185 0.044,0.243 0,0.044 -0.014,0.074 -0.042,0.096 -0.027,0.023 -0.081,0.035 -0.163,0.035 l -0.035,0 z m 0.569,-0.062 -0.471,-1.63 c -0.035,-0.121 -0.054,-0.197 -0.054,-0.226 0,-0.017 0.007,-0.034 0.018,-0.049 0.01,-0.017 0.026,-0.026 0.046,-0.033 0.027,-0.008 0.072,-0.014 0.135,-0.014 0.168,0 0.324,0.018 0.468,0.053 0.143,0.034 0.262,0.087 0.354,0.154 0.13,0.1 0.235,0.236 0.312,0.411 0.079,0.175 0.118,0.373 0.118,0.597 0,0.251 -0.06,0.437 -0.18,0.56 -0.12,0.122 -0.295,0.184 -0.525,0.184 -0.057,0 -0.13,-0.002 -0.221,-0.007" />
      <path
         inkscape:connector-curvature="0"
         id="path6105"
         style="fill:#000000;fill-opacity:1;fill-rule:nonzero;stroke:none"
         d="m 747.37542,-232.07776 1.473,0 -0.035,-0.12 c -0.207,-0.031 -0.39,-0.092 -0.544,-0.187 -0.156,-0.096 -0.367,-0.286 -0.635,-0.57 l -1.13,-1.157 0.318,-1.165 c 0.029,-0.113 0.085,-0.285 0.166,-0.518 0.052,-0.15 0.103,-0.256 0.155,-0.318 0.051,-0.063 0.116,-0.111 0.195,-0.143 0.077,-0.034 0.195,-0.054 0.354,-0.059 l -0.036,-0.12 -1.708,0 0.035,0.12 c 0.176,0.005 0.301,0.04 0.379,0.099 0.058,0.042 0.087,0.099 0.087,0.168 0,0.06 -0.028,0.191 -0.083,0.395 l -0.306,1.094 -1.02,-1.03 c -0.2,-0.204 -0.319,-0.338 -0.357,-0.402 -0.024,-0.039 -0.036,-0.076 -0.036,-0.112 0,-0.064 0.033,-0.118 0.097,-0.158 0.03,-0.016 0.121,-0.035 0.273,-0.054 l -0.032,-0.12 -1.449,0 0.035,0.12 c 0.183,0.016 0.332,0.058 0.447,0.126 0.169,0.099 0.402,0.299 0.7,0.6 l 1.265,1.273 -0.346,1.254 c -0.106,0.385 -0.197,0.623 -0.276,0.711 -0.077,0.089 -0.214,0.141 -0.408,0.153 l 0.032,0.12 1.558,0 -0.039,-0.12 c -0.143,0 -0.241,-0.009 -0.29,-0.028 -0.051,-0.017 -0.09,-0.046 -0.117,-0.083 -0.026,-0.037 -0.04,-0.08 -0.04,-0.128 0,-0.049 0.026,-0.171 0.077,-0.359 l 0.296,-1.072 0.684,0.68 c 0.269,0.271 0.455,0.488 0.556,0.653 0.036,0.057 0.054,0.108 0.054,0.153 0,0.05 -0.021,0.088 -0.061,0.117 -0.057,0.038 -0.166,0.06 -0.325,0.067 l 0.037,0.12" />
      <path
         inkscape:connector-curvature="0"
         id="path6107"
         style="fill:#000000;fill-opacity:1;fill-rule:nonzero;stroke:none"
         d="m 749.28242,-233.27976 c 0.16,0.07 0.29,0.162 0.391,0.276 0.078,0.086 0.116,0.166 0.116,0.244 0,0.041 -0.006,0.076 -0.019,0.109 -0.009,0.017 -0.038,0.051 -0.09,0.103 -0.051,0.052 -0.08,0.086 -0.087,0.107 -0.015,0.034 -0.022,0.076 -0.022,0.125 0,0.091 0.031,0.171 0.095,0.238 0.063,0.065 0.137,0.099 0.223,0.099 0.088,0 0.165,-0.037 0.233,-0.107 0.067,-0.07 0.101,-0.159 0.101,-0.266 0,-0.19 -0.075,-0.383 -0.225,-0.579 -0.151,-0.193 -0.367,-0.345 -0.653,-0.452 l -0.063,0.103" />
      <path
         inkscape:connector-curvature="0"
         id="path6109"
         style="fill:#000000;fill-opacity:1;fill-rule:nonzero;stroke:none"
         d="m 961.66342,-186.72976 0.829,1.16 c 0.214,0.302 0.32,0.495 0.32,0.578 0,0.047 -0.023,0.086 -0.068,0.117 -0.046,0.032 -0.177,0.054 -0.393,0.066 l 0.031,0.119 1.369,0 -0.026,-0.119 c -0.134,-0.016 -0.224,-0.035 -0.273,-0.056 -0.078,-0.03 -0.154,-0.081 -0.229,-0.149 -0.099,-0.091 -0.246,-0.267 -0.436,-0.53 l -1.068,-1.471 -0.32,-1.076 c -0.079,-0.27 -0.118,-0.457 -0.118,-0.56 0,-0.065 0.012,-0.116 0.038,-0.149 0.022,-0.036 0.066,-0.063 0.129,-0.085 0.081,-0.025 0.205,-0.04 0.372,-0.041 l -0.031,-0.119 -1.835,0 0.038,0.119 c 0.182,0.004 0.304,0.019 0.364,0.045 0.096,0.039 0.168,0.089 0.215,0.154 0.072,0.098 0.147,0.276 0.224,0.529 l 0.383,1.273 -0.467,1.504 c -0.084,0.264 -0.16,0.429 -0.229,0.494 -0.068,0.062 -0.19,0.104 -0.364,0.118 l 0.033,0.119 1.607,0 -0.039,-0.119 c -0.2,-0.014 -0.314,-0.027 -0.342,-0.039 -0.047,-0.015 -0.085,-0.044 -0.117,-0.089 -0.028,-0.045 -0.045,-0.098 -0.045,-0.157 0,-0.089 0.033,-0.238 0.094,-0.45 l 0.354,-1.186" />
      <path
         inkscape:connector-curvature="0"
         id="path6111"
         style="fill:#000000;fill-opacity:1;fill-rule:nonzero;stroke:none"
         d="m 964.30942,-185.89076 c 0.16,0.07 0.29,0.162 0.392,0.276 0.078,0.085 0.116,0.167 0.116,0.245 0,0.041 -0.006,0.076 -0.02,0.108 -0.008,0.018 -0.038,0.051 -0.09,0.104 -0.05,0.05 -0.08,0.085 -0.085,0.105 -0.017,0.035 -0.025,0.076 -0.025,0.126 0,0.092 0.032,0.171 0.096,0.237 0.064,0.067 0.137,0.099 0.225,0.099 0.086,0 0.162,-0.035 0.232,-0.106 0.065,-0.07 0.099,-0.159 0.099,-0.265 0,-0.191 -0.074,-0.384 -0.224,-0.579 -0.151,-0.194 -0.366,-0.345 -0.652,-0.453 l -0.064,0.103" />
      <path
         inkscape:connector-curvature="0"
         id="path6113"
         style="fill:#000000;fill-opacity:1;fill-rule:nonzero;stroke:none"
         d="m 873.69242,-186.63276 0.83,1.16 c 0.212,0.302 0.319,0.494 0.319,0.578 0,0.047 -0.023,0.087 -0.068,0.117 -0.046,0.032 -0.177,0.054 -0.393,0.066 l 0.031,0.119 1.368,0 -0.024,-0.119 c -0.134,-0.017 -0.226,-0.035 -0.274,-0.055 -0.078,-0.031 -0.154,-0.083 -0.228,-0.15 -0.1,-0.09 -0.246,-0.267 -0.438,-0.531 l -1.066,-1.469 -0.321,-1.077 c -0.079,-0.27 -0.118,-0.456 -0.118,-0.56 0,-0.065 0.012,-0.115 0.037,-0.149 0.024,-0.036 0.068,-0.063 0.13,-0.084 0.082,-0.027 0.206,-0.04 0.373,-0.042 l -0.033,-0.119 -1.834,0 0.039,0.119 c 0.181,0.004 0.304,0.019 0.363,0.045 0.096,0.039 0.169,0.089 0.216,0.155 0.072,0.097 0.146,0.273 0.224,0.528 l 0.381,1.274 -0.465,1.502 c -0.084,0.265 -0.16,0.43 -0.229,0.495 -0.069,0.063 -0.191,0.103 -0.366,0.118 l 0.034,0.119 1.609,0 -0.04,-0.119 c -0.2,-0.015 -0.315,-0.027 -0.343,-0.038 -0.047,-0.016 -0.085,-0.045 -0.117,-0.09 -0.029,-0.045 -0.044,-0.098 -0.044,-0.157 0,-0.088 0.032,-0.239 0.094,-0.451 l 0.353,-1.185" />
      <g
         transform="translate(431.95242,-318.69976)"
         id="g6117"
         clip-path="url(#clipPath6119)">
        <path
           d="m 443.58,130.555 0.02,0.059 0.694,0 c 0.296,0 0.514,-0.032 0.655,-0.101 0.143,-0.066 0.256,-0.173 0.34,-0.318 0.085,-0.145 0.127,-0.301 0.127,-0.466 0,-0.143 -0.023,-0.281 -0.073,-0.416 -0.049,-0.133 -0.104,-0.242 -0.166,-0.322 -0.061,-0.081 -0.155,-0.169 -0.282,-0.267 -0.129,-0.098 -0.265,-0.17 -0.415,-0.217 -0.149,-0.047 -0.334,-0.069 -0.558,-0.069 l -0.921,0 0.021,0.059 c 0.085,0.003 0.141,0.009 0.169,0.022 0.043,0.018 0.076,0.044 0.095,0.074 0.032,0.045 0.067,0.136 0.106,0.272 l 0.383,1.317 c 0.032,0.104 0.045,0.185 0.045,0.243 0,0.043 -0.013,0.075 -0.04,0.096 -0.028,0.023 -0.083,0.034 -0.164,0.034 l -0.036,0 z m 0.57,-0.061 -0.471,-1.629 c -0.034,-0.123 -0.054,-0.198 -0.054,-0.227 0,-0.017 0.007,-0.034 0.017,-0.05 0.011,-0.016 0.027,-0.027 0.047,-0.032 0.027,-0.009 0.072,-0.014 0.134,-0.014 0.168,0 0.324,0.017 0.468,0.052 0.144,0.035 0.263,0.087 0.355,0.155 0.129,0.099 0.234,0.237 0.312,0.411 0.079,0.174 0.116,0.374 0.116,0.596 0,0.251 -0.058,0.439 -0.178,0.562 -0.121,0.121 -0.295,0.182 -0.526,0.182 -0.056,0 -0.129,-0.001 -0.22,-0.006"
           style="fill:#000000;fill-opacity:1;fill-rule:nonzero;stroke:none"
           id="path6123"
           inkscape:connector-curvature="0" />
        <path
           d="m 547.048,131.75 0.829,1.16 c 0.213,0.301 0.32,0.495 0.32,0.578 0,0.047 -0.023,0.086 -0.068,0.117 -0.046,0.032 -0.176,0.055 -0.394,0.065 l 0.032,0.121 1.368,0 -0.024,-0.121 c -0.134,-0.015 -0.226,-0.034 -0.275,-0.053 -0.077,-0.033 -0.153,-0.083 -0.228,-0.151 -0.099,-0.09 -0.245,-0.266 -0.436,-0.53 l -1.067,-1.471 -0.321,-1.076 c -0.079,-0.27 -0.118,-0.456 -0.118,-0.559 0,-0.066 0.012,-0.117 0.037,-0.15 0.024,-0.036 0.068,-0.063 0.13,-0.086 0.082,-0.025 0.206,-0.039 0.372,-0.041 l -0.032,-0.118 -1.835,0 0.04,0.118 c 0.181,0.005 0.303,0.021 0.363,0.045 0.096,0.039 0.169,0.09 0.216,0.154 0.072,0.099 0.146,0.277 0.224,0.531 l 0.381,1.272 -0.465,1.502 c -0.084,0.267 -0.16,0.431 -0.229,0.496 -0.07,0.064 -0.192,0.104 -0.365,0.117 l 0.033,0.121 1.609,0 -0.04,-0.121 c -0.2,-0.013 -0.315,-0.027 -0.343,-0.038 -0.048,-0.014 -0.085,-0.045 -0.116,-0.09 -0.029,-0.044 -0.045,-0.097 -0.045,-0.157 0,-0.088 0.032,-0.237 0.093,-0.449 l 0.354,-1.186"
           style="fill:#000000;fill-opacity:1;fill-rule:nonzero;stroke:none"
           id="path6125"
           inkscape:connector-curvature="0" />
      </g>
      <path
         inkscape:connector-curvature="0"
         id="path6127"
         style="fill:#000000;fill-opacity:1;fill-rule:nonzero;stroke:none"
         d="m 888.62842,-124.16176 c 0.071,-0.124 0.122,-0.24 0.151,-0.347 0.027,-0.109 0.055,-0.322 0.082,-0.639 l 0.142,-1.579 c 0.129,0.154 0.315,0.398 0.559,0.732 0.118,0.162 0.264,0.384 0.437,0.664 0.104,0.172 0.169,0.292 0.192,0.36 0.013,0.034 0.019,0.07 0.019,0.106 0,0.023 -0.006,0.043 -0.022,0.059 -0.015,0.013 -0.053,0.031 -0.117,0.052 -0.064,0.02 -0.116,0.058 -0.158,0.112 -0.042,0.054 -0.062,0.117 -0.062,0.189 0,0.088 0.025,0.157 0.077,0.211 0.05,0.054 0.116,0.08 0.192,0.08 0.095,0 0.175,-0.038 0.241,-0.117 0.067,-0.078 0.101,-0.185 0.101,-0.322 0,-0.169 -0.06,-0.363 -0.174,-0.58 -0.116,-0.218 -0.339,-0.551 -0.669,-1 -0.328,-0.45 -0.728,-0.941 -1.196,-1.471 -0.325,-0.367 -0.565,-0.598 -0.721,-0.693 -0.155,-0.095 -0.289,-0.143 -0.401,-0.143 -0.068,0 -0.125,0.025 -0.176,0.076 -0.05,0.05 -0.074,0.108 -0.074,0.176 0,0.083 0.034,0.158 0.104,0.227 0.07,0.068 0.145,0.102 0.226,0.102 0.042,0 0.079,-0.009 0.106,-0.028 0.018,-0.011 0.036,-0.042 0.056,-0.092 0.021,-0.05 0.039,-0.084 0.058,-0.101 0.008,-0.011 0.022,-0.016 0.038,-0.016 0.011,0 0.034,0.011 0.066,0.033 0.119,0.072 0.256,0.188 0.412,0.346 0.205,0.21 0.356,0.382 0.455,0.513 l -0.179,2.037 c -0.03,0.336 -0.076,0.542 -0.134,0.614 -0.062,0.072 -0.161,0.109 -0.303,0.109 -0.045,0 -0.126,-0.007 -0.241,-0.019 l -0.028,0.117 0.941,0.232" />
      <path
         inkscape:connector-curvature="0"
         id="path6129"
         style="fill:#000000;fill-opacity:1;fill-rule:nonzero;stroke:none"
         d="m 883.84442,-169.59576 -0.697,2.116 c -0.163,-0.002 -0.329,0.014 -0.501,0.049 l -0.376,-1.318 c -0.047,-0.171 -0.074,-0.315 -0.074,-0.433 0,-0.089 0.032,-0.161 0.094,-0.211 0.047,-0.04 0.176,-0.067 0.386,-0.086 l -0.03,-0.117 -1.686,0 0.036,0.117 c 0.158,0.008 0.266,0.024 0.321,0.05 0.088,0.037 0.152,0.085 0.193,0.147 0.069,0.101 0.14,0.279 0.216,0.533 l 0.759,2.631 c 0.052,0.175 0.077,0.311 0.077,0.408 0,0.099 -0.039,0.181 -0.12,0.25 -0.08,0.069 -0.195,0.101 -0.345,0.099 l 0.04,0.12 1.419,0 c 0.475,0 0.818,-0.089 1.027,-0.269 0.21,-0.181 0.315,-0.417 0.315,-0.711 0,-0.281 -0.108,-0.537 -0.323,-0.77 -0.216,-0.231 -0.511,-0.379 -0.884,-0.44 l 0.423,-1.274 c 0.103,-0.314 0.206,-0.517 0.309,-0.612 0.102,-0.095 0.268,-0.147 0.498,-0.162 l -0.036,-0.117 -1.041,0 z m -1.143,2.348 c 0.138,-0.02 0.26,-0.03 0.366,-0.03 0.368,0 0.66,0.102 0.874,0.307 0.213,0.205 0.321,0.459 0.321,0.763 0,0.238 -0.067,0.42 -0.201,0.546 -0.133,0.125 -0.334,0.19 -0.601,0.19 -0.069,0 -0.151,-0.009 -0.244,-0.026 l -0.515,-1.75" />
      <path
         inkscape:connector-curvature="0"
         id="path6131"
         style="fill:#000000;fill-opacity:1;fill-rule:nonzero;stroke:none"
         d="m 886.90942,-168.62676 -0.553,-1.895 c -0.029,-0.102 -0.045,-0.171 -0.045,-0.202 0,-0.012 0.004,-0.021 0.014,-0.031 0.009,-0.01 0.018,-0.014 0.027,-0.014 0.015,0 0.032,0.006 0.051,0.021 0.036,0.024 0.096,0.089 0.183,0.192 l 0.055,-0.034 c -0.078,-0.107 -0.155,-0.193 -0.235,-0.26 -0.077,-0.066 -0.152,-0.099 -0.22,-0.099 -0.036,0 -0.067,0.013 -0.089,0.038 -0.025,0.026 -0.036,0.063 -0.036,0.11 0,0.06 0.016,0.142 0.048,0.245 l 0.063,0.198 c -0.156,-0.237 -0.297,-0.405 -0.425,-0.497 -0.087,-0.062 -0.172,-0.094 -0.252,-0.094 -0.081,0 -0.151,0.036 -0.213,0.108 -0.059,0.073 -0.09,0.17 -0.09,0.296 0,0.158 0.051,0.328 0.152,0.509 0.102,0.181 0.237,0.329 0.403,0.442 0.132,0.091 0.252,0.138 0.364,0.138 0.058,0 0.107,-0.013 0.149,-0.038 0.042,-0.022 0.083,-0.062 0.124,-0.116 l 0.158,0.559 c 0.01,0.039 0.019,0.071 0.027,0.095 0.014,0.044 0.021,0.078 0.021,0.105 0,0.023 -0.009,0.042 -0.026,0.058 -0.022,0.017 -0.049,0.026 -0.087,0.026 -0.023,0 -0.064,-0.003 -0.121,-0.012 l 0,0.061 0.553,0.091 z m -0.597,-1.141 c 0,0.068 -0.019,0.124 -0.059,0.166 -0.04,0.042 -0.09,0.063 -0.151,0.063 -0.133,0 -0.276,-0.113 -0.422,-0.334 -0.146,-0.223 -0.218,-0.436 -0.218,-0.64 0,-0.079 0.016,-0.142 0.054,-0.184 0.035,-0.042 0.076,-0.062 0.125,-0.062 0.112,0 0.252,0.12 0.42,0.36 0.167,0.241 0.251,0.451 0.251,0.631" />
      <path
         inkscape:connector-curvature="0"
         id="path6133"
         style="fill:#000000;fill-opacity:1;fill-rule:nonzero;stroke:none"
         d="m 887.67242,-169.58376 c -0.151,0 -0.264,-0.044 -0.337,-0.131 -0.073,-0.086 -0.109,-0.218 -0.109,-0.396 0,-0.225 0.046,-0.405 0.142,-0.538 0.095,-0.133 0.224,-0.199 0.382,-0.199 0.144,0 0.254,0.047 0.33,0.141 0.074,0.092 0.111,0.229 0.111,0.408 0,0.167 -0.032,0.312 -0.098,0.439 -0.065,0.124 -0.157,0.216 -0.274,0.276 l -0.147,0 z m 1.039,0 -0.72,0 c 0.166,-0.059 0.292,-0.143 0.381,-0.255 0.088,-0.112 0.132,-0.245 0.132,-0.401 0,-0.212 -0.073,-0.384 -0.215,-0.515 -0.143,-0.13 -0.333,-0.196 -0.568,-0.196 -0.241,0 -0.437,0.076 -0.584,0.231 -0.149,0.154 -0.222,0.357 -0.222,0.609 0,0.233 0.072,0.427 0.218,0.582 0.145,0.154 0.329,0.231 0.552,0.231 l 1.026,0 0,-0.286" />
      <path
         inkscape:connector-curvature="0"
         id="path6135"
         style="fill:#000000;fill-opacity:1;fill-rule:nonzero;stroke:none"
         d="m 873.05942,-114.17176 -0.232,-0.933 -0.237,-0.475 -0.479,-0.472 -0.71,-0.237 -0.48,0 -0.014,0.006 -0.69,0.231 -0.483,0.472 -0.234,0.475 -0.232,0.933 0,0.705 0.232,0.932 0.234,0.476 0.483,0.471 0.71,0.238 0.481,0 0.013,-0.006 0.69,-0.232 0.479,-0.471 0.237,-0.476 0.232,-0.932 0,-0.705 z m -0.337,0.015 0,0.675 -0.229,0.909 -0.225,0.446 -0.446,0.45 -0.443,0.221 -0.434,0 -0.439,-0.221 -0.447,-0.45 -0.225,-0.446 -0.23,-0.909 0,-0.675 0.23,-0.909 0.225,-0.446 0.447,-0.45 0.439,-0.222 0.434,0 0.443,0.222 0.446,0.45 0.225,0.446 0.229,0.909 z m -0.817,-0.469 -0.102,0 0,0.638 -1.278,0 0,-0.638 -0.106,0 0,1.612 0.106,0 0,-0.639 1.278,0 0,0.639 0.102,0 0,-1.612" />
      <path
         inkscape:connector-curvature="0"
         id="path6137"
         style="fill:#000000;fill-opacity:1;fill-rule:nonzero;stroke:none"
         d="m 890.77842,-152.12876 -0.238,-0.48 -0.249,-0.243 -0.711,-0.238 -0.415,0 0,-1.044 0.64,0 0,-0.106 -1.614,0 0,0.106 0.64,0 0,1.044 -0.415,0 -0.709,0.238 -0.249,0.243 -0.239,0.48 0,0.718 0.239,0.48 0.249,0.242 0.709,0.239 0.415,0 0,1.043 -0.64,0 0,0.107 1.614,0 0,-0.107 -0.64,0 0,-1.043 0.415,0 0.711,-0.239 0.249,-0.242 0.238,-0.48 0,-0.718 z m -0.334,0.028 0,0.662 -0.225,0.442 -0.218,0.216 -0.442,0.224 -0.394,0 0,-2.427 0.394,0 0.442,0.226 0.218,0.214 0.225,0.443 z m -1.613,-0.883 0,2.427 -0.395,0 -0.44,-0.224 -0.217,-0.216 -0.225,-0.442 0,-0.662 0.225,-0.443 0.217,-0.214 0.44,-0.226 0.395,0" />
      <g
         transform="translate(431.95242,-318.69976)"
         id="g6141"
         clip-path="url(#clipPath6143)">
        <path
           d="m 308.223,91.983 c 1.4,-1.168 4.282,-3.364 4.42,-4.42 0.292,-2.243 -0.123,-5.445 1.893,-6.944 1.526,-1.134 7.914,-2.525 10.101,-2.525 m 83.332,160.834 c 4.002,0.924 5.629,0.806 8.838,-0.632 1.175,-0.526 0.516,-0.472 1.894,-0.63 0.504,-0.059 1.262,-0.125 1.262,-0.633 l 0,-0.63 c 0,-1.607 1.263,0.653 1.263,-1.263 l 0,-1.894 m 83.331,-97.073 c 0,-2.398 -0.455,-2.375 0.632,-3.788 1.203,-1.565 0.631,-5.459 0.631,-7.575 l 0,-3.788 c 0,-1.981 -1.409,-1.262 -3.157,-1.262"
           style="fill:none;stroke:#ffffff;stroke-width:0.58200002;stroke-linecap:butt;stroke-linejoin:miter;stroke-miterlimit:22.9260006;stroke-dasharray:none;stroke-opacity:1"
           id="path6147"
           inkscape:connector-curvature="0" />
      </g>
      <path
         inkscape:connector-curvature="0"
         id="path6149"
         style="fill:#000000;fill-opacity:1;fill-rule:nonzero;stroke:none"
         d="m 920.89342,-240.44976 0,-1.208 c 0,-0.236 0.015,-0.384 0.044,-0.445 0.029,-0.061 0.08,-0.11 0.154,-0.145 0.074,-0.037 0.21,-0.056 0.407,-0.056 l 0,-0.118 -2.213,0 0,0.118 c 0.201,0 0.336,0.019 0.408,0.057 0.072,0.038 0.123,0.086 0.151,0.146 0.03,0.06 0.043,0.207 0.043,0.443 l 0,2.826 c 0,0.235 -0.013,0.384 -0.043,0.444 -0.028,0.063 -0.079,0.111 -0.153,0.147 -0.072,0.037 -0.208,0.055 -0.406,0.055 l 0,0.12 1.897,0 c 0.625,0 1.074,-0.112 1.346,-0.335 0.273,-0.222 0.408,-0.501 0.408,-0.835 0,-0.283 -0.088,-0.525 -0.264,-0.727 -0.175,-0.199 -0.417,-0.336 -0.725,-0.41 -0.207,-0.052 -0.56,-0.077 -1.054,-0.077 z m 0,2.133 0,-1.883 c 0.072,-0.004 0.124,-0.007 0.16,-0.007 0.262,0 0.462,0.078 0.604,0.234 0.141,0.156 0.212,0.396 0.212,0.721 0,0.324 -0.071,0.56 -0.212,0.709 -0.142,0.15 -0.352,0.226 -0.633,0.226 l -0.131,0" />
      <path
         inkscape:connector-curvature="0"
         id="path6151"
         style="fill:none;stroke:#000000;stroke-width:0.58200002;stroke-linecap:butt;stroke-linejoin:miter;stroke-miterlimit:22.9260006;stroke-dasharray:none;stroke-opacity:1"
         d="m 858.28842,-134.05276 1.343,-0.556 1.342,0.267 -1.452,0.499 -1.233,-0.21 z m 1.233,0.21 57.826,-104.675" />
      <path
         inkscape:connector-curvature="0"
         id="path6153"
         style="fill:none;stroke:#000000;stroke-width:0.58200002;stroke-linecap:butt;stroke-linejoin:miter;stroke-miterlimit:22.9260006;stroke-dasharray:5.8258, 1.7478;stroke-dashoffset:0;stroke-opacity:1"
         d="m 846.90342,-129.73176 35.922,-13.131" />
      <path
         inkscape:connector-curvature="0"
         id="path6155"
         style="fill:none;stroke:#000000;stroke-width:0.58200002;stroke-linecap:butt;stroke-linejoin:miter;stroke-miterlimit:22.9260006;stroke-dasharray:5.8258, 2.9131;stroke-dashoffset:0;stroke-opacity:1"
         d="m 846.80942,-222.98076 12.715,-4.627" />
      <path
         inkscape:connector-curvature="0"
         id="path6157"
         style="fill:none;stroke:#000000;stroke-width:0.58200002;stroke-linecap:butt;stroke-linejoin:miter;stroke-miterlimit:22.9260006;stroke-dasharray:1.1653, 0.5824;stroke-dashoffset:0;stroke-opacity:1"
         d="m 859.52442,-227.60776 57.481,-10.91" />
      <path
         inkscape:connector-curvature="0"
         id="path6159"
         style="fill:none;stroke:#000000;stroke-width:0.58200002;stroke-linecap:butt;stroke-linejoin:miter;stroke-miterlimit:22.9260006;stroke-dasharray:none;stroke-opacity:1"
         d="m 895.91542,-232.95276 -1.818,-2.507 m 2.713,2.282 -1.818,-2.508 m 15.905,92.923 -1.818,-2.509 m 2.713,2.284 -1.818,-2.508 m -50.45,11.252 57.481,-10.91" />
      <path
         inkscape:connector-curvature="0"
         id="path6161"
         style="fill:none;stroke:#000000;stroke-width:0.58200002;stroke-linecap:butt;stroke-linejoin:miter;stroke-miterlimit:22.9260006;stroke-dasharray:1.1653, 0.5824;stroke-dashoffset:0;stroke-opacity:1"
         d="m 859.52442,-227.60776 -0.003,93.765" />
      <path
         inkscape:connector-curvature="0"
         id="path6163"
         style="fill:#000000;fill-opacity:1;fill-rule:nonzero;stroke:none"
         d="m 852.73342,-220.80976 0,-0.661 c 0.245,0.442 0.498,0.661 0.757,0.661 0.118,0 0.215,-0.035 0.292,-0.106 0.078,-0.072 0.116,-0.156 0.116,-0.249 0,-0.085 -0.028,-0.154 -0.084,-0.213 -0.055,-0.059 -0.121,-0.087 -0.199,-0.087 -0.074,0 -0.159,0.037 -0.252,0.111 -0.093,0.075 -0.163,0.111 -0.207,0.111 -0.039,0 -0.08,-0.021 -0.126,-0.064 -0.096,-0.088 -0.195,-0.232 -0.297,-0.434 l 0,-1.409 c 0,-0.163 0.019,-0.287 0.06,-0.37 0.028,-0.058 0.078,-0.106 0.148,-0.145 0.071,-0.038 0.172,-0.058 0.304,-0.058 l 0,-0.115 -1.506,0 0,0.115 c 0.15,0 0.262,0.025 0.334,0.073 0.055,0.033 0.092,0.087 0.114,0.162 0.009,0.037 0.015,0.14 0.015,0.312 l 0,1.141 c 0,0.341 -0.007,0.546 -0.021,0.611 -0.013,0.066 -0.039,0.112 -0.077,0.143 -0.037,0.029 -0.084,0.045 -0.14,0.045 -0.066,0 -0.141,-0.017 -0.225,-0.048 l -0.031,0.116 0.89,0.358 0.135,0" />
      <path
         inkscape:connector-curvature="0"
         id="path6165"
         style="fill:#000000;fill-opacity:1;fill-rule:nonzero;stroke:none"
         d="m 854.67842,-223.63876 c 0.223,0 0.402,-0.084 0.536,-0.253 0.116,-0.144 0.172,-0.309 0.172,-0.497 0,-0.132 -0.031,-0.265 -0.093,-0.401 -0.064,-0.135 -0.151,-0.236 -0.262,-0.304 -0.111,-0.069 -0.234,-0.103 -0.37,-0.103 -0.222,0 -0.398,0.089 -0.529,0.265 -0.11,0.148 -0.165,0.316 -0.165,0.5 0,0.136 0.034,0.27 0.101,0.404 0.067,0.131 0.154,0.231 0.264,0.295 0.108,0.063 0.225,0.094 0.346,0.094 z m -0.049,-0.103 c -0.057,0 -0.114,-0.018 -0.171,-0.051 -0.058,-0.034 -0.104,-0.093 -0.14,-0.177 -0.034,-0.086 -0.052,-0.193 -0.052,-0.326 0,-0.214 0.042,-0.399 0.128,-0.556 0.085,-0.154 0.197,-0.231 0.336,-0.231 0.104,0 0.19,0.043 0.256,0.128 0.068,0.086 0.102,0.233 0.102,0.442 0,0.26 -0.057,0.467 -0.168,0.616 -0.077,0.103 -0.173,0.155 -0.291,0.155" />
      <path
         inkscape:connector-curvature="0"
         id="path6167"
         style="fill:none;stroke:#000000;stroke-width:0.58200002;stroke-linecap:butt;stroke-linejoin:miter;stroke-miterlimit:22.9260006;stroke-dasharray:none;stroke-opacity:1"
         d="m 877.40142,-140.88676 c -8.298,-2.632 -19.24,-4.097 -30.592,-4.097 -4.959,0 -9.891,0.282 -14.577,0.827 m 1.732,0.653 -1.668,-0.701 1.143,-0.966 0.21,-0.177 m 42.575,2.873 1.006,1.504 -1.759,0.209" />
      <path
         inkscape:connector-curvature="0"
         id="path6169"
         style="fill:#000000;fill-opacity:1;fill-rule:nonzero;stroke:none"
         d="m 842.03742,-142.27076 c 0.352,0.029 0.611,0.148 0.773,0.354 0.164,0.205 0.245,0.517 0.245,0.934 0,0.423 -0.056,0.756 -0.169,1.001 -0.112,0.245 -0.264,0.368 -0.455,0.368 -0.147,0 -0.25,-0.072 -0.308,-0.214 -0.058,-0.143 -0.086,-0.431 -0.086,-0.865 l 0,-1.578 z m -0.428,1.513 c 0,0.587 0.067,1.007 0.2,1.261 0.134,0.257 0.353,0.383 0.655,0.383 0.342,0 0.62,-0.149 0.83,-0.449 0.212,-0.297 0.316,-0.696 0.316,-1.195 0,-0.492 -0.138,-0.889 -0.413,-1.189 -0.275,-0.3 -0.662,-0.473 -1.16,-0.52 l 0,-1.252 -0.428,0 0,1.242 c -0.495,0.06 -0.88,0.244 -1.158,0.552 -0.277,0.306 -0.416,0.704 -0.416,1.192 0,0.448 0.133,0.823 0.398,1.126 0.264,0.304 0.603,0.468 1.018,0.493 l 0,-0.131 c -0.25,-0.065 -0.445,-0.222 -0.586,-0.473 -0.14,-0.25 -0.21,-0.565 -0.21,-0.947 0,-0.447 0.081,-0.805 0.242,-1.074 0.163,-0.268 0.4,-0.439 0.712,-0.512 l 0,1.493" />
      <path
         inkscape:connector-curvature="0"
         id="path6171"
         style="fill:#000000;fill-opacity:1;fill-rule:nonzero;stroke:none"
         d="m 844.62842,-142.20276 c 0.222,0 0.401,-0.085 0.536,-0.254 0.115,-0.144 0.172,-0.309 0.172,-0.497 0,-0.131 -0.032,-0.265 -0.094,-0.4 -0.064,-0.135 -0.15,-0.236 -0.261,-0.305 -0.112,-0.069 -0.234,-0.102 -0.371,-0.102 -0.221,0 -0.397,0.088 -0.528,0.264 -0.111,0.149 -0.165,0.316 -0.165,0.501 0,0.135 0.033,0.269 0.101,0.403 0.067,0.133 0.154,0.231 0.264,0.295 0.108,0.063 0.224,0.095 0.346,0.095 z m -0.049,-0.104 c -0.057,0 -0.115,-0.017 -0.172,-0.051 -0.058,-0.033 -0.104,-0.093 -0.138,-0.178 -0.036,-0.084 -0.053,-0.192 -0.053,-0.325 0,-0.215 0.041,-0.399 0.127,-0.555 0.085,-0.154 0.197,-0.232 0.337,-0.232 0.103,0 0.189,0.043 0.256,0.129 0.068,0.085 0.102,0.232 0.102,0.441 0,0.261 -0.057,0.467 -0.169,0.618 -0.076,0.101 -0.173,0.153 -0.29,0.153" />
      <path
         inkscape:connector-curvature="0"
         id="path6173"
         style="fill:none;stroke:#000000;stroke-width:0.41100001;stroke-linecap:butt;stroke-linejoin:miter;stroke-miterlimit:22.9260006;stroke-dasharray:0.8221, 0.411;stroke-dashoffset:0;stroke-opacity:1"
         d="m 858.29442,-227.41576 1.341,-0.558 1.343,0.267 -1.453,0.5 -1.231,-0.209 z" />
      <path
         inkscape:connector-curvature="0"
         id="path6175"
         style="fill:#ffffff;fill-opacity:1;fill-rule:evenodd;stroke:#ffffff;stroke-width:0.58200002;stroke-linecap:butt;stroke-linejoin:miter;stroke-miterlimit:22.9260006;stroke-dasharray:none;stroke-opacity:1"
         d="m 861.24942,-128.32076 8.5215,0 0,-5.6396 -8.5215,0 0,5.6396 z" />
      <path
         inkscape:connector-curvature="0"
         id="path6177"
         style="fill:#000000;fill-opacity:1;fill-rule:nonzero;stroke:none"
         d="m 865.50642,-129.34676 -1.105,-3.015 c -0.058,-0.164 -0.09,-0.271 -0.09,-0.322 0,-0.017 0.009,-0.032 0.028,-0.049 0.018,-0.015 0.037,-0.022 0.056,-0.022 0.028,0 0.061,0.011 0.099,0.033 0.074,0.041 0.195,0.143 0.366,0.307 l 0.11,-0.054 c -0.155,-0.17 -0.311,-0.309 -0.467,-0.414 -0.158,-0.105 -0.305,-0.158 -0.442,-0.158 -0.074,0 -0.133,0.02 -0.179,0.061 -0.048,0.041 -0.071,0.099 -0.071,0.173 0,0.098 0.032,0.228 0.095,0.392 l 0.125,0.316 c -0.31,-0.381 -0.592,-0.645 -0.846,-0.791 -0.176,-0.101 -0.345,-0.151 -0.504,-0.151 -0.164,0 -0.306,0.057 -0.426,0.172 -0.121,0.115 -0.183,0.271 -0.183,0.469 0,0.253 0.103,0.525 0.307,0.813 0.202,0.287 0.471,0.521 0.806,0.701 0.262,0.145 0.504,0.217 0.725,0.217 0.116,0 0.215,-0.018 0.299,-0.055 0.084,-0.038 0.166,-0.1 0.247,-0.187 l 0.315,0.889 c 0.024,0.063 0.043,0.113 0.058,0.15 0.025,0.07 0.037,0.125 0.037,0.169 0,0.037 -0.015,0.066 -0.048,0.09 -0.045,0.029 -0.102,0.043 -0.172,0.043 -0.049,0 -0.13,-0.006 -0.245,-0.017 l 0,0.094 1.105,0.146 z m -1.192,-1.814 c 0,0.109 -0.039,0.197 -0.118,0.263 -0.079,0.066 -0.179,0.1 -0.303,0.1 -0.269,0 -0.55,-0.177 -0.842,-0.531 -0.292,-0.356 -0.439,-0.694 -0.439,-1.017 0,-0.128 0.036,-0.226 0.107,-0.293 0.071,-0.067 0.155,-0.101 0.255,-0.101 0.221,0 0.501,0.192 0.837,0.575 0.336,0.383 0.503,0.718 0.503,1.004" />
      <path
         inkscape:connector-curvature="0"
         id="path6179"
         style="fill:#000000;fill-opacity:1;fill-rule:nonzero;stroke:none"
         d="m 869.07042,-131.02576 -1.437,0 c 0.322,-0.143 0.567,-0.301 0.735,-0.476 0.167,-0.173 0.25,-0.373 0.25,-0.602 0,-0.262 -0.133,-0.487 -0.397,-0.674 -0.266,-0.187 -0.622,-0.281 -1.068,-0.281 -0.468,0 -0.863,0.127 -1.184,0.381 -0.322,0.253 -0.482,0.559 -0.482,0.919 0,0.216 0.067,0.412 0.202,0.587 0.135,0.176 0.306,0.308 0.512,0.398 0.207,0.089 0.523,0.134 0.949,0.134 l 1.92,0 0,-0.386 z m -1.678,0 c -0.09,0.001 -0.16,0.002 -0.206,0.002 -0.383,0 -0.668,-0.067 -0.853,-0.203 -0.185,-0.136 -0.277,-0.329 -0.277,-0.578 0,-0.325 0.11,-0.587 0.33,-0.784 0.221,-0.197 0.481,-0.297 0.784,-0.297 0.252,0 0.461,0.072 0.623,0.217 0.162,0.143 0.244,0.351 0.244,0.622 0,0.391 -0.216,0.731 -0.645,1.021" />
    </g>
  </g>
</svg>
